<svg xmlns="http://www.w3.org/2000/svg" viewBox="0 0 1024 1024"><path d="M411.126 86.112c43.083-80.683 158.669-80.683 201.749 0l397.614 743.928c9.319 17.433 13.962 36.982 13.476 56.74-.482 19.763-6.077 39.06-16.236 56.013-10.158 16.958-24.535 30.991-41.728 40.735-17.198 9.743-36.623 14.868-56.386 14.873h-795.23c-19.764-.005-39.189-5.13-56.384-14.873S26.429 959.75 16.27 942.793C6.112 925.84.518 906.544.034 886.78c-.484-19.758 4.159-39.306 13.477-56.74L411.125 86.112zm115.257 46.225c-1.397-2.594-3.476-4.762-6.006-6.274-2.535-1.511-5.427-2.309-8.376-2.309s-5.842.798-8.376 2.309c-2.529 1.511-4.608 3.678-6.006 6.274L100.004 876.263c-1.332 2.488-1.997 5.284-1.93 8.105s.863 5.576 2.31 7.997c1.449 2.427 3.5 4.434 5.953 5.826s5.227 2.13 8.049 2.135h795.23c2.822-.005 5.596-.742 8.048-2.135s4.506-3.4 5.955-5.826c1.449-2.422 2.243-5.177 2.309-7.997s-.599-5.616-1.93-8.105L526.384 132.337zm34.652 261.271v163.459c0 13.005-5.166 25.477-14.361 34.673s-21.668 14.361-34.673 14.361c-13.005 0-25.477-5.166-34.67-14.361-9.195-9.195-14.361-21.668-14.361-34.673V393.608c0-13.006 5.165-25.478 14.361-34.674 9.193-9.197 21.666-14.363 34.67-14.363s25.477 5.166 34.673 14.363c9.195 9.196 14.361 21.669 14.361 34.674zm16.343 343.263c0 17.337-6.891 33.971-19.149 46.229-12.263 12.263-28.892 19.154-46.229 19.154s-33.967-6.891-46.227-19.154c-12.261-12.257-19.148-28.892-19.148-46.229 0-17.341 6.888-33.971 19.148-46.234s28.891-19.154 46.227-19.154c17.337 0 33.966 6.891 46.229 19.154 12.257 12.263 19.149 28.892 19.149 46.234z"/></svg>