<svg xmlns="http://www.w3.org/2000/svg" viewBox="0 0 1024 1024"><path d="M334.888 158.753c-3.763 1.304-6.991 2.812-10.03 4.606l.255-.139C316.337 168.37 8.921 485.718 4.297 494.388 1.591 499.431.001 505.421.001 511.782s1.59 12.352 4.393 17.594l-.098-.2c2.627 4.939 61.431 66.685 160.066 168.211 166.95 171.733 164.165 169.105 181.297 169.105 12.384-.823 23.298-6.507 30.964-15.14l.041-.047c9.301-12.191 10.563-32.213 2.732-44.457-1.682-2.627-57.752-61.01-124.596-129.798L133.305 552.087l863.129-1.787 8.356-4.887c11.578-6.917 19.211-19.382 19.211-33.631s-7.633-26.715-19.033-33.533l-.178-.098-8.356-4.887-863.129-1.787L254.8 346.514c66.843-68.788 122.914-127.17 124.596-129.798 7.83-12.244 6.569-32.266-2.732-44.457-7.646-9.047-19.001-14.753-31.689-14.753-3.583 0-7.06.455-10.376 1.31l.287-.063z"/></svg>