<svg xmlns="http://www.w3.org/2000/svg" viewBox="0 0 1024 1024"><path d="M498.883 205.368c-15.892 1.542-30.271 6.941-42.525 15.241l.321-.205c-6.948 4.666-89.075 85.445-225.228 221.806C40.858 633.218 16.696 658.105 11.408 668.682 4.219 682.458.001 698.768.001 716.064c0 38.375 20.762 71.9 51.666 89.956l.493.267c32.25 18.769 77.461 17.421 108.155-3.111 5.289-3.526 86.69-83.475 180.742-177.631l171.098-171.202L687.09 628.967C874.78 816.45 867.314 809.606 893.653 816.553c13.792 3.733 42.101 3.526 54.959-.208 17.584-5.345 32.603-14.701 44.564-27.038l.026-.026c19.015-18.679 30.799-44.664 30.799-73.402 0-17.035-4.14-33.102-11.471-47.251l.27.573c-5.496-11.303-25.094-31.524-220.043-226.887C653.701 302.946 574.788 225.278 567.322 220.3c-15.579-9.925-34.567-15.82-54.931-15.82-4.763 0-9.451.323-14.043.946l.534-.06z"/></svg>