<svg xmlns="http://www.w3.org/2000/svg" viewBox="0 0 1024 1024"><path d="M89.44 205.595c-29.641 2.695-63.53 26.635-77.625 54.825C5.04 274.286.763 290.5.009 307.629l-.009.258c0 21.35 8.602 45.394 22.593 63.427 4.145 5.389 102.291 104.26 218.159 219.818 225.518 225.103 216.605 216.916 243.55 224.896 25.495 7.462 61.976 1.865 83.947-12.747 5.803-3.835 103.845-100.53 224.274-221.165 209.764-210.076 214.221-214.636 220.751-228.626 6.764-13.352 10.726-29.11 10.726-45.793 0-36.52-18.984-68.606-47.622-86.928l-.414-.248c-14.27-9.681-31.876-15.455-50.827-15.455-1.625 0-3.24.043-4.843.126l.225-.009a91.873 91.873 0 0 0-4.053-.085c-17.532 0-33.968 4.686-48.127 12.873l.464-.248c-5.907 3.316-68.919 64.878-182.404 178.258l-173.387 173.18-173.387-173.077C153.905 210.882 159.294 215.753 132.97 208.498c-8.74-2.427-18.776-3.822-29.137-3.822-5.074 0-10.069.334-14.966.983l.575-.062z"/></svg>