<svg xmlns="http://www.w3.org/2000/svg" viewBox="0 0 1024 1024"><path d="M692.486 1.366c-11.516 1.936-21.834 5.264-31.429 9.863l.702-.303c-16.842 8.307-16.046 7.51-227.374 218.611-124.953 124.84-208.484 209.053-212.58 214.515-14.177 18.639-22.714 42.242-22.714 67.838 0 27.213 9.649 52.174 25.712 71.647l-.153-.192c3.414 4.211 98.325 99.576 210.873 212.011 208.825 208.597 209.281 209.053 225.667 217.247 14.519 7.189 31.613 11.396 49.69 11.396 62.976 0 114.029-51.053 114.029-114.029 0-24.171-7.52-46.584-20.348-65.029l.247.375c-3.186-4.665-65.094-67.37-167.97-170.36L473.989 511.879l163.418-163.532c166.377-166.605 168.084-168.426 176.278-184.699 12.746-25.264 14.794-59.29 5.234-87.286-11.932-32.572-37-57.863-68.615-69.834l-.803-.267C737.943 2.291 724.625 0 710.772 0c-6.454 0-12.79.498-18.975 1.456l.689-.088z"/></svg>