<svg xmlns="http://www.w3.org/2000/svg" viewBox="0 0 1024 1024"><path d="M661.296 161.599c-10.287 4.817-17.891 13.904-20.598 24.915l-.053.256c-.744 2.951-1.171 6.34-1.171 9.828 0 7.424 1.934 14.396 5.326 20.44l-.108-.211c1.682 2.627 57.751 61.009 124.593 129.795l121.492 124.961-863.109 1.787-8.355 4.887C7.679 485.135 0 497.615 0 511.888s7.679 26.753 19.133 33.532l.18.099 8.355 4.887 863.057 1.787-121.492 124.961c-66.789 68.734-122.858 127.168-124.54 129.795-7.83 12.244-6.621 32.265 2.732 44.456 7.706 8.679 18.62 14.363 30.867 15.179l.137.007c17.131 0 14.346 2.627 181.292-169.101 98.633-101.524 157.435-163.268 160.063-168.208 2.653-4.761 4.216-10.444 4.216-16.492 0-.317-.004-.633-.013-.948l.001.047c.007-.269.011-.585.011-.902 0-6.048-1.563-11.731-4.305-16.668l.09.175c-5.307-9.879-313.189-326.852-322.648-332.159-4.854-2.375-10.504-4.001-16.464-4.557l-.194-.014c-1.339-.227-2.881-.357-4.454-.357-5.453 0-10.542 1.561-14.843 4.261l.116-.068z"/></svg>