<svg xmlns="http://www.w3.org/2000/svg" viewBox="0 0 1024 1024"><path d="M293.448 1.69c-41.191 7.569-74.263 36.184-88.037 74.064l-.254.801c-9.558 27.989-7.509 62.009 5.233 87.268 8.192 16.27 9.899 18.091 176.242 184.661l163.384 163.499L387.2 675.026c-103.082 103.082-164.75 165.66-167.936 170.326-12.579 18.068-20.098 40.477-20.098 64.642 0 62.963 51.042 114.006 114.006 114.006 18.073 0 35.164-4.206 50.348-11.691l-.668.298c16.384-8.192 16.839-8.647 225.621-217.202C701 682.993 795.89 587.647 799.303 583.437c31.971-38.684 34.133-94.891 5.233-136.306-5.802-8.42-407.552-411.307-420.864-422.116-19.166-15.58-43.871-25.016-70.78-25.016-6.871 0-13.599.616-20.131 1.793l.686-.102z"/></svg>