<svg xmlns="http://www.w3.org/2000/svg" viewBox="0 0 1024 1024"><path d="M836.886 80H289.983c-.262 0-.495.073-.738.073s-.474-.073-.736-.073c-70.498 0-127.847 57.351-127.847 127.847V816.16c0 70.498 57.351 127.847 127.847 127.847.262 0 .495-.073.736-.073.244 0 .476.073.738.073h546.903c14.607 0 26.462-11.853 26.462-26.462s-11.853-26.462-26.462-26.462H289.983c-.262 0-.495.073-.738.073s-.474-.073-.736-.073c-41.318 0-74.925-33.611-74.925-74.925s33.608-74.925 74.925-74.925h548.387c14.607 0 26.462-11.853 26.462-26.462V106.458c0-14.623-11.853-26.462-26.462-26.462zm-26.461 608.313H288.498c-27.999 0-53.84 9.153-74.925 24.489V207.846c0-41.316 33.608-74.925 74.925-74.925.262 0 .495-.073.736-.073.244 0 .476.073.738.073h520.441V688.31zm26.461 101.385H294.424c-14.621 0-26.462 11.853-26.462 26.462s11.841 26.462 26.462 26.462h542.462c14.607 0 26.462-11.853 26.462-26.462s-11.853-26.462-26.462-26.462zm-435.89-322.546-18.873 110.026c-1.698 9.931 2.383 19.966 10.53 25.893 8.151 5.913 18.968 6.687 27.876 2.016l98.824-51.955 98.826 51.955c3.879 2.025 8.096 3.034 12.315 3.034 5.481 0 10.935-1.707 15.559-5.049 8.151-5.923 12.23-15.95 10.533-25.893l-18.873-110.026 79.965-77.94c7.212-7.024 9.806-17.554 6.706-27.135-3.122-9.583-11.398-16.563-21.359-18.009l-110.518-16.09-49.413-100.091c-4.449-9.033-13.635-14.749-23.731-14.749-10.071 0-19.261 5.715-23.731 14.749L446.24 327.979l-110.518 16.09c-9.963 1.442-18.259 8.432-21.359 18.009s-.513 20.095 6.706 27.135l79.948 77.94zm66.576-88.81c8.624-1.255 16.068-6.669 19.914-14.465l31.829-64.499 31.838 64.499c3.846 7.802 11.313 13.209 19.914 14.465l71.235 10.374-51.544 50.245c-6.241 6.083-9.089 14.835-7.623 23.425l12.155 70.898-63.668-33.463c-3.861-2.025-8.096-3.034-12.312-3.034-4.237 0-8.451 1.021-12.315 3.034l-63.687 33.463 12.155-70.898c1.464-8.572-1.377-17.342-7.623-23.425l-51.544-50.245 71.265-10.374z"/></svg>