<svg xmlns="http://www.w3.org/2000/svg" viewBox="0 0 1024 1024"><path d="M414.592 150.473c.131 15.884-37.105 760.761-23.892 764.078 13.212 3.321 76.244-26.188 120.332-19.399 44.075 6.793 87.833 21.678 132.191 16.972 8.427-.9 17.466-2.892 22.98-9.361 5.665-6.662 6.074-16.199 6.193-24.96 3.028-233.522-5.943-467.19-26.853-699.77-.582-6.405-1.326-13.234-5.4-18.182-4.353-5.289-11.441-7.213-18.063-8.845-52.268-12.876-104.52-25.753-156.788-38.629-11.029-2.724-23.082-5.356-33.412-.567-10.315 4.798-17.418 22.771-17.285 38.662zM783.094 880.107c1.389 4.858 2.949 9.963 6.672 13.353 3.943 3.595 9.538 4.554 14.801 5.361 63.63 9.728 127.24 5.673 190.866 15.412 4.818.738 10.218 1.344 14.175-1.54 6.221-4.559 4.701-14.145 2.529-21.575C952.733 688.44 893.343 485.763 833.94 283.083c-1.556-5.331-3.278-10.919-7.318-14.7-6.525-6.114-16.62-5.481-25.478-4.464-45.914 5.289-128.399 3.49-137.737 15.858-9.352 12.368 66.824 416.274 119.688 600.331zM79.472 735.087c61.856-118.925 111.608-244.209 148.264-373.261 59.355 28.21 158.662 22.113 163.893 52.18 5.248 30.058-136.013 490.528-169.507 498.931S28.939 899.133 12.681 892.031c-16.241-7.107 44.868-114.802 66.79-156.945z"/></svg>