<svg xmlns="http://www.w3.org/2000/svg" viewBox="0 0 1024 1024"><path d="M52.169 56.032c-4.978 2.196-9.255 5.016-12.978 8.428l.035-.032c-22.774 20.029-19.825 56.033 5.857 71.148 7.209 4.219 8.847 4.465 36.209 5.366 23.839.778 29.901 1.516 36.045 4.26 9.748 4.342 17.203 10.813 22.036 19.128 2.54 4.342 24.658 81.633 61.317 214.221 31.539 114.115 59.597 213.279 62.341 220.365 14.336 37.069 49.48 68.362 87.941 78.316 21.381 5.53 23.47 5.407 243.958-15.196 169.128-14.277 246.108-21.925 322.976-29.95l-99.334 8.405c47.233-6.522 85.993-37.331 103.674-79.213l.324-.864c6.922-16.589 70.738-193.331 73.728-204.186 3.768-13.722 5.12-44.155 2.54-58.696-9.503-53.78-47.841-96.092-99-109.158-12.739-3.236-17.449-3.318-249.979-3.318H412.905l-8.479 4.219c-15.729 7.823-24.412 23.839-22.897 42.271 1.352 16.916 10.486 30.024 25.805 36.946 7.291 3.277 9.626 3.318 238.51 3.359 255.836.041 241.05-.573 254.239 10.732 4.014 3.441 8.97 10.158 12.001 16.384 4.874 9.912 5.161 11.387 4.383 24.084-.737 12.616-3.113 19.988-34.611 106.66-18.637 51.241-35.267 95.846-36.987 99.205-5.848 9.691-14.303 17.289-24.396 21.936l-.344.142c-5.284 1.966-65.577 8.192-217.375 22.364-115.548 10.813-215.122 19.661-221.266 19.661-18.514 0-33.997-10.076-41.452-26.952-1.597-3.645-28.713-99.901-60.211-213.934-31.498-113.992-59.187-211.886-61.481-217.539-7.73-17.533-18.481-32.405-31.733-44.603l-.093-.085c-19.62-18.555-39.117-28.877-63.652-33.546-14.459-2.785-62.382-2.99-70.697-.328zM312.88 791.961c-14.787 3.564-26.952 10.691-39.24 22.938-18.637 18.555-26.87 38.38-26.87 64.84 0 25.723 7.537 44.81 24.986 63.242 17.039 18.022 36.905 26.87 60.211 26.87 37.724 0 71.639-26.46 82.903-64.717 4.096-14.008 3.727-39.158-.778-53.371-6.595-20.726-24.371-42.353-42.926-52.265-11.503-6.037-25.132-9.58-39.588-9.58-6.626 0-13.079.744-19.278 2.154l.58-.111zm475.136 0c-14.787 3.564-26.952 10.691-39.24 22.938-18.514 18.432-26.87 38.666-26.87 65.126 0 26.132 8.274 46.039 26.87 64.594 18.842 18.883 37.929 26.337 63.242 24.74 16.391-.539 31.389-6.082 43.628-15.14l-.211.149c33.587-23.962 46.694-68.403 31.908-107.93-8.268-19.949-22.454-36.063-40.344-46.532l-.452-.244c-11.559-6.145-25.275-9.753-39.833-9.753-6.627 0-13.08.748-19.278 2.163l.579-.111z"/></svg>