<svg xmlns="http://www.w3.org/2000/svg" viewBox="0 0 1024 1024"><path d="M38.235 179.402h305.744c14.475 0 26.209 11.734 26.209 26.209v600.781c0 14.475-11.734 26.209-26.209 26.209H38.235c-14.475 0-26.209-11.734-26.209-26.209V205.611c0-14.475 11.734-26.209 26.209-26.209zM838.548 219.334l152.373 21.397c14.334 2.013 23.501 15.119 20.476 29.274l-118.06 552.346c-3.025 14.155-17.098 23.998-31.432 21.985l-152.373-21.397c-14.334-2.013-23.501-15.119-20.476-29.274l118.06-552.346c3.025-14.155 17.098-23.998 31.432-21.985zM485.918 324.561h126.663c14.475 0 26.209 11.734 26.209 26.209v455.626c0 14.475-11.734 26.209-26.209 26.209H485.918c-14.475 0-26.209-11.734-26.209-26.209V350.77c0-14.475 11.734-26.209 26.209-26.209z"/></svg>