<svg xmlns="http://www.w3.org/2000/svg" viewBox="0 0 1024 1024"><path fill-rule="evenodd" d="M882.45 152.798c-5.106 1.432-12.657 4.695-16.781 7.25-4.254 2.636-123.133 123.87-274.826 280.272-147.032 151.595-268.165 275.627-269.186 275.627-1.021 0-36.316-35.539-78.434-78.974-43.285-44.64-79.977-81.066-84.398-83.786-11.808-7.266-20.057-9.483-35.159-9.449-11.763.026-15.348.792-25.13 5.37-13.793 6.454-25.733 18.159-31.784 31.159-8.463 18.179-6.529 44.671 4.454 61.011 4.351 6.473 101.85 108.109 180.365 188.017 27.955 28.451 34.128 33.88 43.667 38.4 9.897 4.691 12.784 5.259 26.469 5.21 24.946-.089 29.806-3.061 67.835-41.477 24.045-24.289 398.987-410.968 542.759-559.749 26.154-27.066 29.406-33.422 29.406-57.492 0-14.799-.587-18.314-4.414-26.454-12.961-27.562-46.055-43.009-74.843-34.935"/></svg>