<svg xmlns="http://www.w3.org/2000/svg" viewBox="0 0 1024 1024"><path d="M96.612 42.497c-18.968 5.917-34.569 17.942-44.901 33.727l-.196.318c-7.218 11.838-11.484 26.167-11.484 41.485 0 13.731 3.436 26.668 9.487 37.986l-.207-.438c2.711 4.623 70.707 74.016 178.667 182.08l174.249 174.444-174.249 174.552C119.413 795.216 52.023 863.913 49.311 868.633c-5.781 11.088-9.175 24.22-9.175 38.138 0 9.871 1.704 19.335 4.835 28.129l-.183-.586c8.518 20.444 24.447 36.374 44.346 44.693l.543.206c8.208 2.948 17.674 4.651 27.545 4.651 13.917 0 27.051-3.393 38.604-9.395l-.466.217c4.72-2.711 73.417-70.101 181.982-178.667L511.894 621.77l174.444 174.249c108.06 107.96 177.457 175.955 182.08 178.667 11.239 5.871 24.536 9.307 38.642 9.307 6.773 0 13.364-.797 19.677-2.292l-.574.115c22.57-6.212 40.714-21.654 50.416-41.913l.207-.473c4.538-9.77 7.186-21.214 7.186-33.28 0-13.364-3.251-25.971-9.001-37.072l.207.444c-2.106-4.417-63.868-67.39-178.461-182.08l-175.145-175.35L795.821 337.54c109.667-109.667 175.851-177.262 178.565-181.982 7.432-13.059 10.045-25.611 9.138-42.881a56.679 56.679 0 0 0-6.872-28.222l.148.298c-7.933-16.575-20.981-29.636-37.085-37.358l-.471-.207c-9.683-4.551-21.034-7.208-32.997-7.208-13.859 0-26.882 3.568-38.213 9.824l.407-.207c-4.72 2.711-72.305 68.892-182.08 178.565L511.917 402.411 337.473 228.162C227.201 118.096 160.113 52.311 155.393 49.597c-11.299-5.987-24.692-9.495-38.911-9.495-7.047 0-13.888.857-20.428 2.489l.578-.122z"/></svg>