<svg xmlns="http://www.w3.org/2000/svg" viewBox="0 0 1024 1024"><path d="M647.315 171.443c-12.254 2.252-33.988 13.209-143.152 72.257-65.723 35.529-122.963 66.798-127.183 69.476-9.536 6.028-22.646 19.743-28.285 29.603-2.332 4.099-5.862 12.378-7.813 18.403-3.53 10.877-3.552 11.585-3.086 153.278l.467 142.339 3.956 9.943c5.534 13.916 13.793 25.701 24.192 35.18l.073.065c6.454 5.723 42.166 25.892 132.48 74.773 67.996 36.807 128.645 68.767 134.751 70.997 20.515 7.549 43.888 6.858 65.256-1.888 5.194-2.11 64.444-33.603 131.687-69.943 118.173-63.897 122.64-66.493 134.062-77.716 12.662-12.437 18.77-22.95 23.072-39.69 2.171-8.481 2.536-29.463 2.536-148.448 0-136.396-.062-138.75-3.489-149.198-2.279-6.91-4.592-12.594-7.229-18.094l.393.909c-4.364-8.543-19.56-24.409-29.259-30.558-15.644-9.903-246.635-134.041-256.212-137.693-7.406-2.799-14.164-3.897-26.499-4.261-9.132-.264-18.444-.143-20.717.264zm27.84 43.811c7.67 1.767 246.006 129.883 255.341 137.248 3.104 2.454 6.696 6.068 8.015 8.055 2.373 3.571.588 4.525-136.11 72.863l-138.527 69.253L525.37 433.42c-136.719-68.341-138.486-69.292-136.131-72.863 1.319-1.988 4.93-5.601 8.034-8.015 4.382-3.471 190.695-105.107 239.534-130.713 15.42-8.077 24.857-9.679 38.349-6.575zM44.637 355.969c-10.634 6.472-13.919 18.385-8.158 29.504 5.987 11.585 1.421 11.159 120.326 11.159 101.799 0 107.135-.143 112.046-3.125 10.51-6.351 13.716-19.884 7.224-30.517-6.372-10.469-3.915-10.267-120.447-10.267-101.841.021-105.897.121-110.991 3.247zm597.708 316.336c0 117.85-.264 131.404-2.557 130.511-5.477-2.09-230.768-124.302-238.925-129.597-5.677-3.63-10.282-8.457-13.551-14.147l-.106-.197-4.992-8.706-.021-119.716-.021-119.738L642.343 540.8v131.505zm303.247-141.792V650.31l-5.397 8.989c-2.983 5.01-8.32 10.936-12.011 13.352-6.921 4.566-234.806 128.117-239.857 130.044-2.74 1.054-2.902-5.823-2.902-130.39V540.8l129.659-64.951c71.324-35.712 129.861-64.992 130.085-65.031.224-.062.426 53.81.426 119.697zm-820.664-52.576c-9.374 5.093-12.985 21.731-6.634 30.437 7.265 9.903 8.401 10.043 78.748 10.064 71.141 0 72.926-.243 79.034-10.267 6.329-10.389 3.287-24.247-6.656-30.111-4.037-2.395-12.5-2.699-72.257-2.637-56.653.041-68.44.467-72.235 2.516zm82.097 121.626c-10.186 6.208-13.555 16.739-8.907 27.939 4.282 10.369 9.536 11.89 40.704 11.89h27.759l6.432-6.432c5.519-5.519 6.413-7.446 6.392-13.657-.021-9.191-2.699-14.447-9.76-19.215-5.256-3.53-7.285-3.773-31.472-3.773-22.705.021-26.499.405-31.146 3.247z"/></svg>