<svg viewBox="0 0 20 20" xmlns="http://www.w3.org/2000/svg">
<path d="M10.0018 2.96875C10.209 2.96875 10.4077 3.05106 10.5542 3.19757C10.7007 3.34409 10.783 3.5428 10.783 3.75V11.2391L12.5744 9.44766C12.7218 9.30535 12.9191 9.2266 13.124 9.22838C13.3288 9.23016 13.5248 9.31232 13.6696 9.45717C13.8145 9.60202 13.8966 9.79797 13.8984 10.0028C13.9002 10.2077 13.8214 10.405 13.6791 10.5523L10.5541 13.6773C10.4076 13.8238 10.2089 13.9061 10.0018 13.9061C9.79463 13.9061 9.59595 13.8238 9.44944 13.6773L6.32444 10.5523C6.24983 10.4803 6.19031 10.3941 6.14936 10.2988C6.10842 10.2034 6.08687 10.1009 6.08597 9.99719C6.08507 9.89345 6.10483 9.79058 6.14411 9.69457C6.1834 9.59855 6.24141 9.51133 6.31476 9.43797C6.38811 9.36462 6.47534 9.30661 6.57135 9.26733C6.66737 9.22804 6.77024 9.20828 6.87398 9.20918C6.97771 9.21008 7.08023 9.23163 7.17554 9.27258C7.27086 9.31352 7.35706 9.37304 7.42913 9.44766L9.22054 11.2391V3.75C9.22054 3.5428 9.30285 3.34409 9.44936 3.19757C9.59587 3.05106 9.79459 2.96875 10.0018 2.96875Z" fill="currentColor"/>
<path d="M5.3125 13.9062C5.3125 13.699 5.23019 13.5003 5.08368 13.3538C4.93716 13.2073 4.73845 13.125 4.53125 13.125C4.32405 13.125 4.12534 13.2073 3.97882 13.3538C3.83231 13.5003 3.75 13.699 3.75 13.9062V14.375C3.75 15.8453 4.93594 17.0312 6.40625 17.0312H13.5938C15.0641 17.0312 16.25 15.8453 16.25 14.375V13.9062C16.25 13.699 16.1677 13.5003 16.0212 13.3538C15.8747 13.2073 15.676 13.125 15.4688 13.125C15.2615 13.125 15.0628 13.2073 14.9163 13.3538C14.7698 13.5003 14.6875 13.699 14.6875 13.9062V14.375C14.6875 14.9828 14.2016 15.4688 13.5938 15.4688H6.40625C5.79844 15.4688 5.3125 14.9828 5.3125 14.375V13.9062Z" fill="currentColor"/>
</svg>
