<svg viewBox="0 0 43 43" fill="none" xmlns="http://www.w3.org/2000/svg">
  <circle cx="21.5" cy="21.5" r="21" fill="#B3EC91" stroke="white"/>
  <path fill-rule="evenodd" clip-rule="evenodd" d="M33.6916 9.30316C31.3831 7 27.8548 7 21.4974 7C21.0386 7 20.5986 7.00033 20.1687 7.00119C20.171 7.0417 20.1747 7.08542 20.1748 7.12493C20.1756 8.47049 20.1728 9.81607 20.1774 11.1616C20.1784 11.4666 20.1306 11.7238 19.8889 11.8451C19.6559 11.9619 19.493 11.8041 19.3386 11.6017C18.9016 11.029 18.4608 10.4611 18.002 9.86602C17.5667 10.4306 17.1529 10.9677 16.7386 11.5041C16.6747 11.5869 16.6185 11.7081 16.5414 11.7392C16.3964 11.7975 16.2126 11.8782 16.0938 11.8091C15.9745 11.7398 15.8426 11.5009 15.8404 11.3336C15.822 9.93339 15.8281 8.53041 15.8289 7.09947C12.84 7.28164 10.8104 7.80301 9.30842 9.30842C7 11.6116 7 15.1452 7 21.4974C7 27.8495 7 31.3831 9.30842 33.6916C11.6116 36 15.1452 36 21.4974 36C27.8495 36 31.3831 36 33.6916 33.6916C36 31.3831 36 27.8547 36 21.4974C36 15.14 36 11.6116 33.6916 9.30316ZM23.3112 20.4252V22.336H18.2158C18.4945 24.3662 19.8081 25.64 21.7985 25.64C23.3112 25.64 24.4259 24.8041 24.9832 23.4108L27.1726 24.1671C26.4561 26.3964 24.3861 27.6702 21.7985 27.6702C18.2557 27.6702 15.8274 25.1623 15.8274 21.5C15.8274 17.8377 18.2557 15.3298 21.7985 15.3298C24.3861 15.3298 26.4561 16.6037 27.1726 18.8329L24.9832 19.5892C24.4259 18.196 23.3112 17.36 21.7985 17.36C19.8878 17.36 18.6139 18.5542 18.2557 20.4252H23.3112Z" fill="black"/>
</svg>
