<svg viewBox="0 0 45 45" fill="none" xmlns="http://www.w3.org/2000/svg">
  <path d="M4.05976 4.061L4.05887 4.06189C2.57936 5.54937 1.68323 7.1554 1.16372 9.90933C0.650995 12.6273 0.5 16.4908 0.5 22.5071C0.5 28.516 0.647438 32.376 1.15836 35.0922C1.67611 37.8446 2.57246 39.4512 4.05976 40.939C5.54022 42.4199 7.14637 43.3164 9.90106 43.8361C12.6199 44.349 16.4857 44.5 22.5 44.5C28.5074 44.5 32.3693 44.3489 35.088 43.8379C37.8421 43.3202 39.4512 42.4278 40.9385 40.955L40.9411 40.9523C42.4275 39.4579 43.3239 37.8519 43.8416 35.0993C44.3526 32.3831 44.5 28.523 44.5 22.5071C44.5 16.4911 44.3526 12.6276 43.8416 9.90965C43.3239 7.15543 42.4276 5.54883 40.9402 4.061C39.4598 2.58006 37.8536 1.68358 35.0989 1.16394C32.3801 0.651046 28.5143 0.5 22.5 0.5C16.4857 0.5 12.6199 0.651046 9.90106 1.16394C7.14638 1.68358 5.54022 2.58006 4.05976 4.061Z" fill="black" stroke="white"/>
  <path d="M25.6256 24.9844L28.5566 26.0304C27.6923 28.5706 25.4001 30.1022 22.3188 30.1022C18.0725 30.1022 15.3293 27.2258 15.3293 22.8177C15.3293 18.4471 18.1101 15.5332 22.3188 15.5332C25.4001 15.5332 27.6923 16.9902 28.5566 19.6051L25.6256 20.6512C25.062 19.1194 23.8971 18.223 22.2812 18.223C20.4399 18.223 19.1247 19.3435 18.7489 21.361H23.7843V23.9011H18.6737C18.9744 26.1798 20.2896 27.4127 22.2812 27.4127C23.8971 27.4127 25.062 26.516 25.6256 24.9844Z" fill="white"/>
  <path d="M14.8038 22.6302L14.8032 22.6299L12.0153 17.8295L11.5008 16.9437L11.2959 16.5908H10.4168L9.28799 18.2137L11.1156 21.3605H7.28529L6.64087 22.6306L7.28529 23.9007H11.1156L9.28799 27.0475L10.4168 28.6704H11.2959L11.5008 28.3175L12.0153 27.4317L14.8032 22.6313L14.8038 22.631L14.8036 22.6306L14.8038 22.6302Z" fill="#80C0C8" />
  <path d="M18.3733 29.4199L18.3728 29.4203L12.797 29.4203L11.768 29.4203H11.3582L10.9187 30.1771L11.768 31.9604H15.4231L13.508 35.258L14.2922 36.4478L15.7209 36.5281L17.636 33.2305L19.4636 36.3773L21.4418 36.2169L21.8813 35.4601L21.6763 35.1072L21.1619 34.2214L18.374 29.421V29.4203H18.3736L18.3733 29.4199Z" fill="#80C0C8" />
  <path d="M26.2587 29.4203V29.421L23.4708 34.2214L22.9564 35.1072L22.7515 35.4601L23.191 36.2169L25.1691 36.3773L26.9967 33.2305L28.9118 36.5281L30.3405 36.4478L31.1247 35.258L29.2096 31.9604L32.8647 31.9604L33.7141 30.1771L33.2745 29.4203H32.8647H31.8357H26.26L26.2593 29.4199L26.2591 29.4203L26.2587 29.4203Z" fill="#80C0C8" />
  <path d="M38.3648 22.6302L38.3642 22.6299L35.5763 17.8295L35.0618 16.9437L34.857 16.5908H33.9778L32.849 18.2137L34.6766 21.3605H28.9006V23.9006L34.6766 23.9007L32.849 27.0475L33.9778 28.6704H34.8569L35.0618 28.3175L35.5763 27.4317L38.3642 22.6313L38.3648 22.631L38.3646 22.6306L38.3648 22.6302Z" fill="white" />
  <path d="M26.2593 15.8425L33.2745 15.8421L33.7141 15.0853L32.8647 13.302L29.2096 13.302L31.1247 10.0044L30.3405 8.81455L28.9118 8.73438L26.9967 12.032L25.1691 8.88513L23.191 9.04553L22.7515 9.80236L26.2587 15.8414L26.2593 15.8425Z" fill="#80C0C8" />
  <path d="M18.3741 15.8412L21.8813 9.80141L21.4418 9.04458L19.4636 8.88419L17.636 12.031L15.7209 8.7334L14.2922 8.8136L13.508 10.0035L15.4232 13.3011L11.768 13.3011L10.9187 15.0844L11.3582 15.8412H18.3741Z" fill="#80C0C8" />
</svg>
