<svg xmlns="http://www.w3.org/2000/svg" viewBox="0 0 1024 1024"><path d="M130.624 124.717c-23.857 3.499-50.374 15.772-71.964 33.271-21.102 16.547-37.52 38.145-47.546 63.007l-.363 1.02C-.685 250.751-.389 243.111.253 519.134c.592 237.379.838 253.99 4.19 265.031 14.639 48.452 49.734 87.637 94.389 105.43 28.884 11.485 8.28 10.942 413.541 10.942 303.724 0 376.032-.493 386.431-2.613 57.669-11.878 105.086-56.634 121.597-114.796 3.401-12.026 3.598-26.813 3.598-270.995V253.855l-4.436-15.379c-15.132-52.198-54.021-91.876-107.944-110.064l-13.801-4.682-378.546-.247c-208.2-.148-383.08.395-388.65 1.232zm757.435 79.948c6.457 1.675 12.47 3.795 13.357 4.682 1.628 1.628-385.15 286.718-388.354 286.275-.936-.099-84.877-65.556-186.562-145.454-126.329-99.269-184.147-145.8-182.372-146.884 1.38-.887 166.698-1.628 367.357-1.628 323.341-.049 366.125.296 376.573 3.007zM227.084 372.151l143.088 112.381-142.743 142.842C148.911 705.942 84.242 769.772 83.651 769.181c-4.337-4.337-5.028-39.679-5.028-257.046 0-221.508.493-254.286 3.943-252.906.739.296 65.802 51.114 144.518 112.922zm719.039 141.955c0 129.583-.69 235.605-1.528 235.605-2.07 0-284.352-258.87-284.5-260.94-.148-1.675 281.74-209.728 284.55-210.074.838-.099 1.479 105.825 1.479 235.408zm-485.356 41.896c50.078 39.481 51.804 39.481 103.114 1.43l30.313-22.526 4.929 5.569c2.711 3.057 70.583 65.704 150.826 139.194S896.142 814.033 896.438 814.92c2.514 6.457-10.055 6.704-375.194 7.295-198.441.345-363.857.049-367.554-.592l-6.753-1.232 142.792-142.792c47.325-47.551 94.074-94.083 141.043-140.392l2.44-2.401c.395 0 12.766 9.513 27.553 21.195z"/></svg>