<svg xmlns="http://www.w3.org/2000/svg" viewBox="0 0 1024 1024"><path d="M953.725 80.314H70.274c-18.638 0-36.513 7.403-49.691 20.583S0 131.949 0 150.588v722.824c0 18.638 7.403 36.513 20.583 49.691s31.052 20.583 49.691 20.583h883.451c18.638 0 36.513-7.403 49.691-20.583s20.583-31.052 20.583-49.691V150.588c0-18.638-7.403-36.513-20.583-49.691s-31.052-20.583-49.691-20.583zM70.274 140.55h883.451c2.663 0 5.216 1.057 7.098 2.941 1.883 1.881 2.941 4.436 2.941 7.098V690.55L815.836 542.622c-6.525-6.526-14.272-11.704-22.798-15.236s-17.667-5.35-26.895-5.35c-9.23 0-18.369 1.819-26.897 5.35s-16.273 8.708-22.798 15.236l-107.521 107.52-227.94-227.991c-6.525-6.526-14.273-11.704-22.8-15.236s-17.666-5.35-26.895-5.35c-9.23 0-18.368 1.819-26.895 5.35s-16.275 8.708-22.8 15.236L60.233 643.515V150.588c0-2.663 1.057-5.216 2.941-7.098 1.881-1.883 4.436-2.941 7.098-2.941zm-10.04 732.863V728.697l263.931-263.932c.933-.939 2.044-1.686 3.267-2.197s2.534-.772 3.861-.772c1.325 0 2.637.263 3.861.772s2.334 1.256 3.267 2.197l418.685 418.687H70.274c-2.663 0-5.216-1.057-7.098-2.941-1.883-1.881-2.941-4.436-2.941-7.098zm893.491 10.039H842.289L651.543 692.706l107.471-107.52c.932-.933 2.039-1.675 3.259-2.179 1.218-.504 2.524-.766 3.844-.766 1.319 0 2.625.261 3.844.766s2.326 1.246 3.259 2.179l190.746 190.746v97.48c0 1.336-.266 2.658-.783 3.889s-1.275 2.348-2.228 3.283c-.955.934-2.084 1.67-3.326 2.163s-2.569.732-3.903.705zm-351.373-512c0-9.929 2.943-19.634 8.46-27.887 5.514-8.255 13.354-14.689 22.527-18.487 9.173-3.8 19.266-4.792 29.002-2.857s18.682 6.716 25.702 13.737c7.019 7.019 11.8 15.963 13.736 25.701s.943 19.83-2.856 29.002c-3.8 9.171-10.234 17.013-18.488 22.527s-17.96 8.46-27.887 8.46c-13.314 0-26.081-5.289-35.494-14.702-9.412-9.412-14.701-22.179-14.701-35.493z"/></svg>