<svg xmlns="http://www.w3.org/2000/svg" viewBox="0 0 1024 1024"><path d="M110.807 218.561c-11.357 4.042-26.275 17.95-31.568 29.475-2.406 5.246-21.222 82.915-41.843 172.615C-1.92 591.726-3.581 601.086 2.869 616.173c5.029 11.79 14.509 23.099 24.013 28.681 6.112 3.561 21.343 8.229 45.764 13.98 42.3 9.938 53.849 10.25 70.211 1.973 10.371-5.246 23.05-17.661 25.313-24.759.722-2.286 2.021-4.138 2.887-4.138s50.985 48.652 111.379 108.155C408.42 864.149 404.305 860.877 434.455 860.756c14.076-.048 18.647-.938 28.753-5.534 12.728-5.823 27.117-19.056 33.421-30.75l4.138-7.651c.265-.433 7.339 5.775 15.736 13.787s19.61 16.626 24.927 19.129c20.188 9.48 44.176 9.36 63.353-.361 10.972-5.558 27.117-21.92 31.135-31.521l2.719-6.52 14.244 7.05c13.042 6.473 15.615 7.074 31.039 7.002 21.246-.072 36.886-6.497 50.023-20.549 11.549-12.343 16.337-22.256 19.152-39.629 2.431-14.918 3.874-17.3 10.539-17.348 7.291-.048 27.453-11.284 35.755-19.946 4.548-4.716 10.707-13.883 13.715-20.356 4.62-9.985 5.462-14.388 5.51-28.85l.024-17.035 41.049-18.046 7.002 6.713c3.826 3.681 10.9 8.638 15.688 11.044 14.918 7.483 26.443 7.146 65.687-1.877 19.297-4.452 38.161-9.36 41.915-10.948 20.307-8.469 34.022-29.33 34.022-51.779 0-9.696-9.263-53.271-37.367-176.056-20.549-89.724-39.316-167.442-41.698-172.687-8.614-18.984-30.124-32.723-51.202-32.723-10.418 0-73.218 13.666-84.527 18.383-10.057 4.21-22.57 16.362-28.489 27.67-4.548 8.711-5.174 12.199-5.077 27.911l.096 17.95-15.543 6.424c-18.094 7.483-30.727 9.167-44.225 5.943-5.823-1.395-31.472-14.821-64.508-33.686-53.945-30.871-75.239-40.952-95.499-45.308-12.728-2.719-42.42-1.131-55.677 2.983-12.103 3.754-31.111 15.086-44.08 26.275l-9.721 8.373-196.893-1.011-4.74-11.622c-5.39-13.282-15.929-25.024-27.478-30.63-11.357-5.486-75.192-19.682-87.727-19.49-6.786.189-13.241 1.302-19.343 3.216l.503-.136zm56.087 43.671c36.092 8.422 42.083 11.862 41.939 24.061-.048 3.658-16.867 79.45-37.367 168.453-39.412 171.026-38.858 169.175-50.48 172.086-2.526.65-19.899-2.382-38.618-6.713-37.175-8.59-42.829-11.742-42.829-23.748 0-5.607 70.596-316.332 74.878-329.494 2.622-6.829 8.934-11.677 16.43-12.125l.052-.002c2.166 0 18.358 3.344 35.996 7.483zm737.187-2.214c5.751 5.246 7.05 10.346 43.262 168.26 20.549 89.556 37.343 165.349 37.343 168.381 0 11.742-5.847 14.918-43.045 23.46-18.816 4.307-35.37 7.844-36.814 7.844-1.42 0-5.342-2.454-8.711-5.437-5.895-5.269-6.809-8.494-26.587-94.512-58.757-255.217-55.966-241.983-52.622-248.985 3.705-7.868 6.592-9.047 42.035-17.348 35.538-8.325 37.752-8.422 45.138-1.66zm-349.609 21.343c14.388 4.283 41.168 17.95 82.41 42.035 59.912 34.985 69.273 38.474 99.252 36.886 13.787-.746 21.078-2.31 33.228-7.195 8.541-3.441 16.193-5.558 16.963-4.716.794.866 13.955 56.375 29.283 123.385 38.274 186.495 48.474 229.566 58.805 272.585l-29.305-144.557 1.612 6.208-49.686 21.727-97.255-96.798c-92.346-91.866-98.025-97.135-112.005-103.872-18.43-8.879-35.081-12.151-54.643-10.804-20.621 1.444-34.455 6.762-59.07 22.786-42.973 28.007-66.072 37.776-89.676 37.92-15.832.121-26.829-3.344-39.436-12.392l-8.783-6.304 23.292-23.7c12.8-13.042 39.123-42.276 58.492-64.965 54.787-64.147 72.472-80.461 94.97-87.655 6.478-2.2 13.94-3.47 21.7-3.47 7.078 0 13.911 1.057 20.347 3.022l-.493-.13zm-147.832 39.58c-49.181 57.843-67.948 78.776-90.422 100.84-25.625 25.168-27.141 27.093-27.141 34.287 0 9.36 6.448 19.201 20.404 31.111 24.398 20.813 45.476 29.162 73.916 29.258 32.699.121 61.067-10.659 107.866-40.952 25.986-16.842 38.763-21.415 55.558-19.874 22.281 2.021 22.57 2.261 129.714 109.262 84.96 84.864 99.878 100.6 101.634 107.241 5.798 21.751-14.292 41.915-36.092 36.236-6.737-1.756-18.214-12.271-76.707-70.33-85.393-84.767-85.345-84.72-94.416-84.72-10.467 0-18.551 8.686-18.551 19.923v8.445l78.368 78.656c43.117 43.262 79.378 80.605 80.581 82.963 2.599 5.149 2.839 18.239.433 24.566-5.053 13.282-21.439 21.101-36.092 17.203-7.314-1.925-18.383-12.199-89.989-83.589l-81.64-81.351h-8.422c-15.808 0-24.47 14.87-17.035 29.258 1.564 3.032 28.608 30.822 60.105 61.741 55.461 54.45 64.772 65.35 64.772 75.816 0 7.917-7.651 21.366-14.63 25.674-7.218 4.452-22.184 5.39-29.211 1.828-2.382-1.203-33.926-31.665-70.139-67.684-43.142-42.901-67.684-65.927-71.221-66.793-13.233-3.248-25.048 5.726-25.048 18.984 0 8.061.794 9.071 34.166 42.829 27.309 27.598 34.624 36.115 36.308 42.348 5.968 21.823-14.893 42.395-36.958 36.453-7.507-2.021-57.747-50.24-216.069-207.36l-28.296-28.079 29.884-130.387c41.423-201.538 52.106-246.559 62.923-291.529l-32.028 157.726c.915-3.2 6.617-3.441 83.684-3.441 78.559 0 82.554.168 79.786 3.441z"/></svg>