<svg xmlns="http://www.w3.org/2000/svg" viewBox="0 0 1024 1024"><path d="M805.043 103.088c35.004 14.219 66.816 35.441 93.549 62.392 122.92 117.668 105.052 313.79-38.703 466.805l-46.359 46.12L709.758 781.42c-45.509 44.828-80.382 79.309-105.903 103.877l-25.948 24.564-8.506 8.191c-15.798 14.985-36.628 23.31-58.267 23.272-22.351-.552-43.586-9.997-59.117-26.295l-290.91-285.768C19.478 480.123 4.59 280.991 123.677 165.474c51.171-51.694 120.116-81.287 192.359-82.573s142.168 25.84 195.102 75.678c49.34-48.293 115.141-75.464 183.733-75.858a277.455 277.455 0 0 1 110.175 20.365z"/></svg>