<svg xmlns="http://www.w3.org/2000/svg" viewBox="0 0 1024 1024"><path d="M898.587 165.484c-26.733-26.957-58.545-48.174-93.549-62.392s-72.474-21.145-110.175-20.365c-68.592.399-134.399 27.565-183.733 75.858-52.935-49.838-122.859-76.963-195.102-75.678S174.845 113.79 123.669 165.48C4.582 280.997 19.47 480.128 161.099 629.267l290.909 285.768c15.536 16.298 36.771 25.743 59.117 26.295 21.639.034 42.475-8.291 58.267-23.272l8.506-8.191 25.948-24.564c25.518-24.568 60.393-59.054 105.903-103.877l150.132-149.134c143.755-153.016 161.618-349.131 38.703-466.805zm-99.941 405.167-10.637 10.341-34.023 34.051-103.777 103.015c-42.531 43.106-78.257 77.154-103.772 101.725l-35.302 35.339-290.486-287.927C111.77 452.542 99.012 308.58 183.219 225.822c17.856-18.141 39.07-32.536 62.426-42.356s48.389-14.876 73.675-14.876c25.286 0 50.319 5.056 73.675 14.876s44.57 24.215 62.425 42.356l3.83 3.45a90.805 90.805 0 0 1 13.608 12.93l38.278 40.517 38.278-40.517 11.912-11.637 4.676-3.881c17.881-18.335 39.175-32.893 62.645-42.83 23.474-9.936 48.658-15.053 74.093-15.053s50.624 5.118 74.089 15.053c23.474 9.936 44.769 24.495 62.649 42.83 83.788 81.895 71.028 226.287-40.828 343.962z"/></svg>