<svg xmlns="http://www.w3.org/2000/svg" viewBox="0 0 1024 1024"><path fill-rule="evenodd" d="M121.679 235.593c-9.421 1.876-13.682 4.179-21.423 11.579-6.959 6.653-13.216 20.818-13.216 29.921 0 15.791 12.449 33.615 27.432 39.275 6.995 2.643 36.666 2.82 400.222 2.39l392.667-.465 8.347-5.16c10.639-6.578 17.316-16.134 19.891-28.469 1.751-8.384 1.613-11.069-.994-19.341-3.673-11.651-12.731-22.207-23.245-27.09l-7.68-3.566-387.413-.251c-213.078-.138-390.642.392-394.588 1.177m114.086 235.686c-7.798 2.259-17.624 8.983-22.23 15.213-12.788 17.297-11.064 39.976 4.2 55.24 13.985 13.985-9.918 12.935 294.265 12.935s280.28 1.05 294.265-12.935c8.017-8.017 12.935-19.321 12.935-29.732 0-15.256-10.344-31.286-24.82-38.465-6.618-3.281-12.238-3.354-279.82-3.632-172.633-.179-275.173.327-278.795 1.376m173.681 235.914c-10.11 3.614-18.233 11.037-23.21 21.209-8.537 17.45-5.113 36.778 8.785 49.589 13.203 12.17 13.451 12.196 116.979 12.196 103.528 0 103.776-.026 116.979-12.196 22.923-21.129 14.942-60.3-14.425-70.798-8.877-3.173-196.231-3.173-205.108 0"/></svg>