<svg viewBox="0 0 20 20" xmlns="http://www.w3.org/2000/svg">
    <path d="M9.99983 2.96875C10.207 2.96875 10.4057 3.05106 10.5523 3.19757C10.6988 3.34409 10.7811 3.5428 10.7811 3.75V11.2391L12.5725 9.44766C12.7198 9.30535 12.9172 9.2266 13.122 9.22838C13.3269 9.23016 13.5228 9.31232 13.6677 9.45717C13.8125 9.60202 13.8947 9.79797 13.8965 10.0028C13.8982 10.2077 13.8195 10.405 13.6772 10.5523L10.5522 13.6773C10.4057 13.8238 10.207 13.9061 9.99983 13.9061C9.79268 13.9061 9.594 13.8238 9.44749 13.6773L6.32249 10.5523C6.24787 10.4803 6.18836 10.3941 6.14741 10.2988C6.10647 10.2034 6.08492 10.1009 6.08401 9.99719C6.08311 9.89345 6.10288 9.79058 6.14216 9.69457C6.18144 9.59855 6.23945 9.51133 6.31281 9.43797C6.38616 9.36462 6.47339 9.30661 6.5694 9.26733C6.66541 9.22804 6.76829 9.20828 6.87202 9.20918C6.97576 9.21008 7.07827 9.23163 7.17359 9.27258C7.2689 9.31352 7.35511 9.37304 7.42718 9.44766L9.21858 11.2391V3.75C9.21858 3.5428 9.30089 3.34409 9.44741 3.19757C9.59392 3.05106 9.79263 2.96875 9.99983 2.96875Z" fill="currentColor"/>
    <path d="M5.3125 13.9062C5.3125 13.699 5.23019 13.5003 5.08368 13.3538C4.93716 13.2073 4.73845 13.125 4.53125 13.125C4.32405 13.125 4.12534 13.2073 3.97882 13.3538C3.83231 13.5003 3.75 13.699 3.75 13.9062V14.375C3.75 15.8453 4.93594 17.0312 6.40625 17.0312H13.5938C15.0641 17.0312 16.25 15.8453 16.25 14.375V13.9062C16.25 13.699 16.1677 13.5003 16.0212 13.3538C15.8747 13.2073 15.676 13.125 15.4688 13.125C15.2615 13.125 15.0628 13.2073 14.9163 13.3538C14.7698 13.5003 14.6875 13.699 14.6875 13.9062V14.375C14.6875 14.9828 14.2016 15.4688 13.5938 15.4688H6.40625C5.79844 15.4688 5.3125 14.9828 5.3125 14.375V13.9062Z" fill="currentColor"/>
</svg>
