<svg viewBox="0 0 20 20" xmlns="http://www.w3.org/2000/svg">
  <path d="M15.8346 2.70839H5.6263C5.09058 2.69267 4.57047 2.88997 4.17996 3.25705C3.78944 3.62413 3.56038 4.13105 3.54297 4.66673V15.0001C3.56471 15.6286 3.83486 16.2228 4.29415 16.6524C4.75345 17.0821 5.36439 17.312 5.99297 17.2917H15.8346C15.9997 17.2896 16.1574 17.223 16.2742 17.1063C16.3909 16.9895 16.4575 16.8318 16.4596 16.6667V3.33339C16.4575 3.1683 16.3909 3.01058 16.2742 2.89384C16.1574 2.77709 15.9997 2.71055 15.8346 2.70839ZM15.2096 16.0417H5.99297C5.69579 16.0624 5.40256 15.9643 5.17761 15.769C4.95265 15.5737 4.81432 15.2972 4.79297 15.0001C4.81432 14.7029 4.95265 14.4264 5.17761 14.2311C5.40256 14.0358 5.69579 13.9378 5.99297 13.9584H15.2096V16.0417ZM15.2096 12.7084H5.99297C5.57343 12.7089 5.16076 12.8149 4.79297 13.0167V4.66673C4.81206 4.4633 4.90987 4.27538 5.06555 4.14305C5.22123 4.01072 5.42246 3.94446 5.6263 3.95839H15.2096V12.7084Z" fill="currentColor"/>
  <path d="M7.29297 7.29175H12.7096C12.8754 7.29175 13.0344 7.2259 13.1516 7.10869C13.2688 6.99148 13.3346 6.83251 13.3346 6.66675C13.3346 6.50099 13.2688 6.34202 13.1516 6.22481C13.0344 6.1076 12.8754 6.04175 12.7096 6.04175H7.29297C7.12721 6.04175 6.96824 6.1076 6.85103 6.22481C6.73382 6.34202 6.66797 6.50099 6.66797 6.66675C6.66797 6.83251 6.73382 6.99148 6.85103 7.10869C6.96824 7.2259 7.12721 7.29175 7.29297 7.29175ZM7.29297 10.2084H12.7096C12.8754 10.2084 13.0344 10.1426 13.1516 10.0254C13.2688 9.90815 13.3346 9.74917 13.3346 9.58341C13.3346 9.41765 13.2688 9.25868 13.1516 9.14147C13.0344 9.02426 12.8754 8.95841 12.7096 8.95841H7.29297C7.12721 8.95841 6.96824 9.02426 6.85103 9.14147C6.73382 9.25868 6.66797 9.41765 6.66797 9.58341C6.66797 9.74917 6.73382 9.90815 6.85103 10.0254C6.96824 10.1426 7.12721 10.2084 7.29297 10.2084Z" fill="currentColor"/>
</svg>
