<svg xmlns="http://www.w3.org/2000/svg" viewBox="0 0 1024 1024"><path d="M325.34 96.812c-30.36 4.802-56.431 18.017-77.922 39.494-26.843 26.843-40.222 59.552-40.071 97.943.078 20.462 1.586 27.533 12.246 57.073 4.207 11.674 7.451 21.427 7.202 21.674s-10.79 2.245-23.424 4.423c-29.978 5.174-40.146 9.767-55.327 24.99-12.144 12.194-19.232 24.882-22.783 40.812-1.95 8.762-2.19 19.214-1.774 77.426.484 67.002.494 67.339 3.843 77.021 4.653 13.425 15.47 28.837 27.118 38.625l9.664 8.121.754 126.605c.858 142.247.062 131.701 11.726 155.767 13.797 28.468 39.475 49.478 71.534 58.55 8.606 2.434 20.67 2.557 263.864 2.557s255.243-.124 263.864-2.557c38.496-10.894 66.846-38.478 78.724-76.607l3.893-12.506.781-251.629 8.95-7.169c13.494-10.807 23.35-25.142 29.479-42.874 3.36-9.737 4.362-134.989 1.196-150.189-5.221-25.003-21.516-46.046-44.208-57.018-10.27-4.966-14.901-6.224-34.578-9.386-12.506-2.003-22.928-3.82-23.176-4.001s2.945-9.616 7.116-20.948c12.246-33.308 15.502-53.848 12.192-76.986-2.012-14.066-9.695-37.782-15.641-48.387-19.578-34.857-50.882-58.786-89.468-68.392-9.958-2.47-16.327-3.069-33.15-3.076-31.959-.013-57.392 6.072-85.878 20.554-26.065 13.234-43.671 27.633-66.014 53.914l-13.84 16.279-14.137-15.938c-18.317-20.636-30.902-32.208-46.158-42.406-21.398-14.312-44.652-24.094-69.203-29.094-15.99-3.251-45.147-4.632-57.376-2.698zm31.881 52.629c49.634 4.81 91.352 33.254 113.164 77.172 10.617 21.376 13.911 36.312 14.846 67.096l.767 25.43-155.247-.936-11.212-3.77c-25.602-8.606-44.274-26.475-54.455-52.13-3.374-8.502-3.692-10.955-3.7-28.735-.007-16.671.44-20.618 3.072-27.688 11.492-30.758 38.566-52.615 69.762-56.29 4.966-.591 9.334-1.122 9.719-1.216s6.354.396 13.266 1.066zm341.563 1.733c10.028 2.1 25.121 9.658 34.658 17.394 9.958 8.056 21.356 24.316 25.695 36.628 4.342 12.35 5.449 35.981 2.262 48.542-8.656 34.126-36.571 58.798-72.098 63.728-6.634.915-38.148 1.508-81.094 1.508h-70.226l.764-25.35c.647-21.071 1.378-27.69 4.36-39.234 10.835-41.85 40.742-77.033 79.765-93.782 25.53-10.95 52.543-14.326 75.894-9.438zM485.61 456.444v84.715H175.923V371.73H485.61v84.714zm362.46 0v84.715H538.383V371.73H848.07v84.714zm-362.46 278.49v140.999l-110.746-.39c-110.475-.39-110.779-.39-118.898-3.458-15.934-6.006-26.836-16.821-33.601-33.254l-3.334-8.098-.026-118.382-.026-118.383H485.61v140.999zm319.413-23.016c0 115.883-.051 118.119-2.877 125.659-6.006 16.042-17.613 28.079-33.24 34.45l-7.634 3.112-222.899.793V593.921h266.631v117.991z"/></svg>