<svg xmlns="http://www.w3.org/2000/svg" viewBox="0 0 1024 1024"><path fill="#4285f4" d="M1008.052 523.408c0-34.858-2.816-69.673-8.448-103.805H522.308v196.942h273.484c-11.775 65.217-48.819 120.111-100.419 155.198l-.826.53v127.996h163.024c95.613-88.872 150.438-220.452 150.438-376.863z"/><path fill="#34a853" d="M522.308 1023.999c136.4 0 251.683-45.481 335.349-123.729l-163.11-127.996c-45.651 31.316-104.018 49.065-172.239 49.065-132.135 0-243.917-90.28-283.98-211.193H70.313v132.263C156.07 914.52 331.125 1024 522.309 1024z"/><path fill="#fbbc04" d="M238.328 610.146c-10.028-29.289-15.817-63.034-15.817-98.13s5.789-68.841 16.464-100.331l-.648 2.201V282.391H70.312C36.037 349.29 15.949 428.339 15.949 512.079s20.087 162.789 55.707 232.589l-1.344-2.901 168.015-131.623z"/><path fill="#ea4335" d="M522.308 202.693c1.516-.031 3.304-.048 5.096-.048 73.532 0 140.216 29.317 189.003 76.9l-.056-.055 144.08-145.744C774.303 50.975 657.083-.001 527.958-.001c-1.986 0-3.969.012-5.95.036l.3-.003c-191.183 0-366.153 109.521-451.953 282.316L238.37 414.611c40.106-121.596 151.846-211.918 283.98-211.918z"/></svg>