<svg xmlns="http://www.w3.org/2000/svg" viewBox="0 0 20 20">
    <path fill-rule="evenodd" clip-rule="evenodd" d="M9.95443 16.6257C13.8664 16.6257 17.0378 13.4543 17.0378 9.54232C17.0378 5.6303 13.8664 2.45898 9.95443 2.45898C6.04241 2.45898 2.87109 5.6303 2.87109 9.54232C2.87109 13.4543 6.04241 16.6257 9.95443 16.6257ZM9.95443 17.8757C14.5568 17.8757 18.2878 14.1447 18.2878 9.54232C18.2878 4.93994 14.5568 1.20898 9.95443 1.20898C5.35205 1.20898 1.62109 4.93994 1.62109 9.54232C1.62109 14.1447 5.35205 17.8757 9.95443 17.8757Z" />
    <path fill-rule="evenodd" clip-rule="evenodd" d="M9.95443 4.54222C10.4147 4.54222 10.7878 4.91531 10.7878 5.37555V10.3755C10.7878 10.8358 10.4147 11.2089 9.95443 11.2089C9.49419 11.2089 9.12109 10.8358 9.12109 10.3755V5.37555C9.12109 4.91531 9.49419 4.54222 9.95443 4.54222Z" />
    <path d="M9.11748 13.7088C9.11748 13.2485 9.49058 12.8754 9.95082 12.8754C10.4111 12.8754 10.7841 13.2485 10.7841 13.7088C10.7841 14.169 10.4111 14.5421 9.95082 14.5421C9.49058 14.5421 9.11748 14.169 9.11748 13.7088Z" />
</svg>