<svg xmlns="http://www.w3.org/2000/svg" viewBox="0 0 1024 1024"><path d="M512 92.246c136.704 0 152.918.513 206.891 2.986 55.808 2.56 113.28 15.275 153.942 55.936 41.046 41.046 53.376 97.963 55.936 153.942 2.475 53.973 2.986 70.186 2.986 206.893 0 136.704-.513 152.918-2.986 206.891-2.518 55.509-15.53 113.536-55.936 153.942-41.046 41.046-97.92 53.376-153.942 55.936-53.973 2.475-70.186 2.986-206.891 2.986s-152.918-.513-206.891-2.986c-55.082-2.518-113.877-15.829-153.942-55.936-40.832-40.832-53.376-98.304-55.936-153.942-2.475-53.973-2.986-70.186-2.986-206.891s.513-152.919 2.986-206.893c2.518-55.296 15.658-113.664 55.936-153.942 40.96-40.96 98.091-53.376 153.942-55.936 53.973-2.475 70.186-2.986 206.891-2.986zM512 0C372.949 0 355.499.597 300.885 3.072 221.738 6.699 143.146 28.715 85.931 85.93 28.502 143.359 6.699 221.781 3.073 300.884.598 355.498.001 372.948.001 512.001c0 139.051.597 156.501 3.072 211.115C6.7 802.177 28.801 880.983 85.931 938.07c57.386 57.386 135.936 79.232 214.954 82.858C355.499 1023.403 372.949 1024 512 1024s156.501-.597 211.115-3.072c79.104-3.627 157.781-25.685 214.954-82.858 57.472-57.472 79.232-135.851 82.858-214.954 2.475-54.614 3.072-72.064 3.072-211.115s-.597-156.503-3.072-211.117c-3.627-79.147-25.685-157.781-82.858-214.954C880.768 28.629 802.005 6.655 723.115 3.072 668.501.597 651.051 0 512 0z"/><path d="M511.996 249.083c-145.195 0-262.913 117.718-262.913 262.909 0 145.195 117.718 262.917 262.913 262.917s262.913-117.722 262.913-262.917c0-145.193-117.718-262.909-262.913-262.909zm0 433.577c-94.251 0-170.667-76.416-170.667-170.667s76.417-170.665 170.667-170.665c94.251 0 170.667 76.414 170.667 170.665S606.247 682.66 511.996 682.66zM785.358 300.109c33.932 0 61.44-27.507 61.44-61.44s-27.507-61.44-61.44-61.44c-33.932 0-61.44 27.507-61.44 61.44s27.507 61.44 61.44 61.44z"/></svg>