<svg xmlns="http://www.w3.org/2000/svg" viewBox="0 0 1024 1024"><path fill="#223651" d="M170.667 0h682.667c94.256 0 170.667 76.411 170.667 170.667v682.667c0 94.256-76.411 170.667-170.667 170.667H170.667C76.411 1024.001 0 947.59 0 853.334V170.667C0 76.411 76.411 0 170.667 0z"/><path fill="#efece4" d="M422.279 790.82h2.925c40.472 39.351 91.672 62.513 135.412 62.513 104.936 0 200.801-92.013 200.801-250.441 0-142.531-66.657-234.935-185.636-234.935-50.517 0-104.887 25.551-143.751 65.828h-2.925l4.047-85.089V170.667h-91.819v671.305h72.557l8.387-51.151zm10.873-282.38c40.863-43.105 81.92-61.831 118.833-61.831 81.14 0 115.42 60.708 115.42 157.599 0 109.373-54.125 170.472-124.343 170.472-30.232 0-72.557-12.629-109.909-47.348V508.391z"/></svg>