<svg xmlns="http://www.w3.org/2000/svg" viewBox="0 0 1024 1024"><path fill="#F5793B" d="M210.357 51.512c-15.648 5.426-29.891 20.201-33.621 34.928-1.405 5.619-2.519 27.758-2.519 49.559v39.386L90.36 249.699c-23.872 21.547-52.205 46.428-80.845 70.96l-6.21 5.194c-8.139 4.651-.29 49.268 13.129 74.653 11.142 21.025 35.122 43.939 58.037 55.421 10.367 5.183 20.298 9.446 21.993 9.446 2.664 0 3.149 29.648 3.149 189.902v189.902H73.937c-39.869 0-56.825 7.46-68.065 29.987C.35 886.306.107 888.244.107 928.793c0 29.696.824 42.874 2.713 44.763 3.876 3.876 133.125 3.876 137.001 0 3.488-3.488 3.488-11.433 0-14.921-1.938-1.938-18.409-2.713-59.877-2.713H22.731v-33.33c0-29.454.533-34.201 4.602-40.839 9.156-15.018-26.693-14 485.364-13.953 460.223 0 465.26.049 472.575 4.457 14.243 8.72 16.326 15.357 16.326 51.448l.049 32.216H280.358l-2.423 5.377c-1.792 3.876-1.745 6.686.097 10.173l2.567 4.797h738.972l2.519-4.699c1.647-3.101 2.228-18.554 1.745-45.78-.678-37.109-1.211-41.953-5.668-50.334-12.062-22.478-30.084-30.278-70.05-30.278H922.49v-378.98l12.111-3.827c28.097-8.866 60.701-38.369 74.701-67.629 7.993-16.762 15.842-48.686 14.533-59.199-.533-4.457-21.074-23.883-86.619-82.162l-85.941-76.251-1.114-46.555-1.114-46.507-6.782-10.901c-4.777-7.552-11.273-13.615-18.962-17.744l-.27-.132-12.45-7.025-293.863-.533c-283.497-.485-294.348-.339-306.363 3.779zm600.276 21.461c14.872 6.25 16.907 13.08 16.907 57.213v38.998H196.504l.727-40.451c.775-44.473 1.017-45.198 16.52-54.79 6.54-4.02 18.458-4.215 297.933-4.215 248.278 0 292.314.485 298.95 3.245zm-475.919 119.9c0 .582-17.924 30.084-39.822 65.545l-39.822 64.528h-15.696c-8.623 0-15.26-.775-14.727-1.696l53.289-86.473-104.882.097-98.924 88.072H42.011l6.782-6.589c3.681-3.634 36.673-33.136 73.297-65.594l66.611-58.956h73.006c40.161 0 73.006.485 73.006 1.066zm165.051 64.479v65.594h-36.188V234.68l-95.968 1.211-53.629 87.055H282.2l3.198-5.087c1.792-2.81 19.959-32.312 40.354-65.594l37.156-60.458h136.855v65.545zm200.414-1.114c21.51 34.832 39.094 64.092 39.143 65.109.049.968-6.782 1.502-15.114 1.114l-15.211-.678-26.839-43.503-26.79-43.503h-94.563v88.169H522.34V191.759l138.745 1.163 39.094 63.317zm207.633.582 73.248 64.964-31.488 1.356-99.602-88.362H745.814l5.136 8.478 25.288 41.081c11.094 17.973 20.637 33.96 21.267 35.607.872 2.277-2.47 2.955-14.339 2.906l-15.502-.049-23.738-38.852-40.112-65.497-16.374-26.644h147.125l73.248 65.013zM73.356 357.39c11.384 25.288 35.461 42.97 62.785 46.07 30.084 3.391 65.013-17.344 76.736-45.538l5.136-12.401h31.392L248 356.276c-.775 5.911-5.475 18.99-10.416 29.115-34.008 69.082-123.34 84.971-179.922 32.022-16.52-15.406-31.392-42.195-33.96-61.137L22.2 345.521h45.829l5.329 11.869zm245.323 2.713c8.72 17.73 23.011 30.956 40.548 37.545 17.585 6.589 44.133 5.571 60.216-2.277 15.067-7.411 29.745-22.527 36.382-37.496l5.426-12.354h19.233c22.381 0 22.042-.485 14.775 23.109-15.037 46.964-58.309 80.368-109.382 80.368-8.706 0-17.183-.971-25.333-2.81l.767.146c-27.904-6.201-55.76-26.112-72.182-51.642-7.267-11.287-15.453-34.493-15.453-43.696 0-5.329.436-5.475 18.894-5.475h18.941l7.17 14.582zm249.586-1.211c7.703 16.81 24.27 32.119 41.807 38.708 17.44 6.54 44.181 5.668 59.78-1.986 15.836-8.364 28.379-21.155 36.211-36.723l.22-.482 6.104-12.886h38.804l-1.55 8.478c-6.652 37.308-30.709 67.858-63.306 83.368l-.689.295c-14.361 7.174-31.283 11.372-49.187 11.372-31.333 0-59.662-12.861-79.997-33.591l-.017-.017c-15.938-15.938-28.97-40.258-31.052-58.037l-1.405-11.869h38.126l6.153 13.371zm240.042-6.636c1.986 9.059 15.357 26.741 26.839 35.413 19.572 14.872 48.686 18.651 73.151 9.495 16.52-6.201 36.478-25.433 42.389-40.887l4.069-10.755h22.188c12.208 0 22.72.921 23.399 1.986.629 1.066-.339 7.849-2.228 15.067-15.696 60.265-76.493 97.615-136.129 83.567-44.52-10.512-80.369-48.444-87.103-92.141l-1.307-8.478h16.665c16.567 0 16.616.049 18.07 6.733zm-537.83 53.433c9.544 16.277 30.471 37.253 46.555 46.701 19.516 11.453 42.981 18.217 68.026 18.217.184 0 .367 0 .551-.001h-.029c26.208.097 41.76-3.73 65.545-16.181 19.233-10.028 42.631-32.506 53.047-50.916l7.509-13.225 6.733 11.723c23.735 40.394 66.5 67.373 115.659 68.594l.172.004c25.191.339 39.822-3.052 64.189-14.921 22.624-10.948 45.344-32.216 55.711-52.077 3.681-7.072 7.218-12.837 7.849-12.79s4.554 6.104 8.768 13.419c22.139 38.659 67.144 65.399 111.617 66.369l17.488.388v187.093l.049 187.093H746.153V711.23l-.049-133.949-5.329-11.336c-5.647-12.843-15.853-22.813-28.52-28.018l-.352-.128c-10.367-4.602-13.564-4.651-198.961-4.651-119.609.049-191.404.872-196.588 2.325-12.79 3.585-25.094 13.904-32.506 27.275l-6.782 12.257-.629 135.063-.629 135.112H122.191V469.978l6.297 1.26c10.077 2.035 40.258-3.101 56.632-9.641 29.283-11.748 52.981-32.288 68.392-58.315l.351-.641c3.681-6.54 6.976-11.869 7.315-11.869s4.505 6.686 9.302 14.921zm229.288 172.705v22.624h-58.86c-64.964 0-69.179.727-83.082 14.146-13.515 13.08-14.049 18.312-14.049 129.783v100.231h-45.247V713.457c0-123.872.242-132.204 4.215-139.617 3.033-5.157 6.92-9.475 11.513-12.902l.114-.081c7.411-5.038 7.849-5.087 96.404-5.087h88.993v22.624zm212.816-14.05c6.782 6.346 9.641 11.142 11.094 18.651 1.066 5.571 1.986 66.805 2.035 136.129l.097 126.053h-47.476l-.049-104.592c-.049-96.792-.339-105.221-4.215-113.602-4.504-10.353-12.788-18.354-23.067-22.381l-.282-.098c-6.879-2.859-19.378-3.488-68.404-3.488H522.34v-45.247h181.036l9.205 8.574z"/></svg>