<svg xmlns="http://www.w3.org/2000/svg" viewBox="0 0 1759 1024"><path fill="#f39f69" d="M915.186 197.573c-.046-5.579.093-11.529 3.197-16.153 3.086-4.604 8.515-6.971 13.773-8.658 17.279-5.547 36.061-6.266 53.713-2.061 6.401 1.522 13.065 3.979 16.907 9.346 3.127 4.365 3.873 9.96 4.534 15.304 12.31 100.34 4.697 86.515 17.015 186.855.84 6.861 1.617 14.169-1.361 20.405-2.567 5.371-7.613 9.162-12.971 11.705-16.028 7.612-36.334 5.043-49.982-6.33s-44.016-109.341-44.825-210.412z"/><path fill="#f3a46f" d="M1032.31 403.155c7.371 15.98 32.755 16.383 41.963 14.994 13.912-2.101 27.778-4.533 41.582-7.295 4.907-.982 10.11-2.164 13.648-5.736 3.896-3.935 6.206-9.854 5.53-15.365-13.283-108.544-40.728-189.668-22.872-292.472 2.683-15.437-54.367-20.691-65.659-13.477-5.832 3.724-7.177 11.556-7.94 18.461-11.664 105.984-10.988 194.366-6.252 300.891z"/><path fill="#f3aa76" d="M1149.399 236.674c-.42 3.959-9.317 85.333-9.549 131.245-.071 14.404.902 30.569 11.494 40.263 8.523 7.801 20.926 9.127 32.414 9.945 15.483 1.095 32.529 1.494 44.7-8.192 6.859-5.457 11.175-13.43 15.321-21.176 13.127-24.584 26.262-49.163 39.389-73.742 9.223-17.26 18.446-34.519 27.164-52.038 1.649-3.306 3.317-6.842 2.963-10.524-.645-6.748-7.543-10.879-13.811-13.351-42.757-16.87-118.603-12.272-128.572-11.968-7.754.239-21.083 5.582-21.511 9.538z"/><path fill="#f2b483" d="M1287.2 385.151c.684 6.861.226 14.978 4.735 20.706 6.844 8.692 19.14 8.493 29.905 8.032 48.43-2.082 96.86-.267 145.185 4.381 6.144.591 12.616 1.182 17.145-3.618 2.481-2.63 2.757-6.212 3.138-9.452 2.468-20.87 4.267-41.494 4.608-62.478.066-3.442-.053-7.159-1.575-10.359-2.271-4.776-7.221-8.344-11.907-10.581-28.751-13.736-66.166-13.501-95.888-16.181-32.807-2.958-76.572-5.939-96.473 8.528-19.901 14.463-.973 50.113 1.128 71.024z"/><path fill="#f2b989" d="M1480.376 171.465c5.028 51.158 10.056 102.316 15.084 153.47 2.98 30.299 6.446 61.998 23.368 87.238 1.549 2.304 3.321 4.636 5.842 5.754 4.385 1.932 9.347-.32 13.68-2.332 29.696-13.794 63.947-17.42 95.849-10.151-4.569-98.311-1.09-196.999 10.398-294.733-50.544 1.678-101.1 3.353-151.644 5.031-7.207.239-18.511 1.498-18.511 8.43s5.934 47.292 5.934 47.292z"/><path fill="#f58448" d="M298.042 59.643c.062 7.46-17.428 357.333-11.222 358.89 6.206 1.561 35.811-12.3 56.521-9.111 20.702 3.191 41.255 10.182 62.09 7.973 3.958-.423 8.204-1.357 10.794-4.398 2.66-3.128 2.854-7.608 2.908-11.723 1.423-109.686-2.791-219.442-12.614-328.686-.272-3.008-.622-6.216-2.535-8.54-2.045-2.484-5.373-3.388-8.485-4.155-24.551-6.048-49.094-12.096-73.645-18.144-5.179-1.279-10.841-2.515-15.693-.266-4.844 2.253-8.181 10.695-8.118 18.16z"/><path fill="#f4884e" d="M471.152 402.357c.652 2.28 1.384 4.679 3.134 6.271 1.851 1.69 4.479 2.14 6.953 2.519 29.885 4.569 59.764 2.664 89.65 7.236 2.263.349 4.798.634 6.656-.723 2.925-2.14 2.209-6.643 1.191-10.132-27.903-95.199-55.799-190.398-83.701-285.598-.731-2.504-1.54-5.129-3.437-6.905-3.064-2.871-7.807-2.574-11.968-2.097-21.566 2.484-60.31 1.639-64.694 7.448-4.394 5.809 31.386 195.528 56.218 281.98z"/><path fill="#f48f56" d="M582.493 417.682c3.5 3.149 63.435-2.199 95.156-3.298 1.952-.067 4.107-.219 5.506-1.6 1.96-1.944 1.415-5.199.731-7.882-4.783-18.621-9.557-37.258-13.127-56.153-19.715-104.42-2.357-215.624-38.643-315.447-29.302-4.022-76.912 3.787-86.011 15.159-9.09 11.372 32.889 366.068 36.387 369.222z"/><path fill="#f4965e" d="M694.959 418.666c-3.142-140.841-5.389-275.095-25.958-414.441 35.268-1.373 70.581-1.561 105.857-.563 5.024.141 10.366.411 14.473 3.321 6.672 4.726 7.435 14.209 7.543 22.42 1.703 124.54 1.407 249.111-.894 373.642-.087 4.546-.412 9.652-3.787 12.679-2.979 2.668-7.357 2.817-11.339 2.821-28.634.038-57.268.077-85.894.121z"/><path fill="#f58043" d="M140.645 334.239c29.054-55.861 52.422-114.705 69.64-175.322 27.88 13.25 74.525 10.386 76.982 24.509 2.465 14.118-63.886 230.403-79.619 234.35-15.732 3.948-90.738-6.483-98.375-9.82-7.629-3.336 21.075-53.923 31.371-73.717z"/><path fill="#f49a63" d="M807.054 56.84c.545-12.256-1.158-20.198 4.955-24.446 6.105-4.244 19.27-4.108 26.69-3.904 16.136.43 32.281.865 48.417 1.299 6.051.16 12.544.473 17.358 4.166 7.014 5.387 7.692 15.578 7.754 24.458.785 115.131 1.578 230.266 2.364 345.397-22.708-.779-45.58 3.474-66.507 12.377-3.453 1.468-7.169 3.098-10.824 2.25-5.064-1.174-7.878-6.522-9.807-11.381-13.283-33.486-15.6-70.212-17.241-106.231-3.701-81.265-4.751-162.651-3.157-243.986z"/><path fill="#efece4" d="M48.654 813.425h1.516c20.896 19.913 47.36 31.622 69.944 31.622 54.227 0 103.749-46.558 103.749-126.707 0-72.126-34.435-118.86-95.918-118.86-26.075 0-54.173 12.906-74.236 33.304h-1.516l2.084-43.064v-90.078H6.847v339.654h37.468l4.339-25.87zm5.622-142.878c21.106-21.81 42.336-31.274 61.389-31.274 41.916 0 59.631 30.703 59.631 79.724 0 55.341-27.98 86.256-64.243 86.256-15.6 0-37.484-6.38-56.778-23.968V670.547zM384.163 845.047c61.303 0 115.873-44.82 115.873-122.396 0-78.354-54.57-123.17-115.873-123.17s-115.881 44.816-115.881 123.17c0 77.576 54.578 122.396 115.881 122.396zm0-206.344c41.17 0 67.315 33.518 67.315 83.948 0 50.047-26.145 83.17-67.315 83.17s-67.315-33.122-67.315-83.17c0-50.431 26.145-83.948 67.315-83.948zM660.342 845.047c61.303 0 115.881-44.82 115.881-122.396 0-78.354-54.578-123.17-115.881-123.17s-115.88 44.816-115.88 123.17c0 77.576 54.577 122.396 115.88 122.396zm0-206.344c41.17 0 67.315 33.518 67.315 83.948 0 50.047-26.145 83.17-67.315 83.17s-67.315-33.122-67.315-83.17c0-50.431 26.145-83.948 67.315-83.948zM884.584 773.874l49.227-49.783 79.556 112.123h52.166L962.849 694.731l91.547-92.591h-53.324L886.49 717.416h-1.906V496.558h-47.43v339.656h47.43v-62.339zM1416.73 726.322h.985l-63.934 112.096 4.569.985 77.089-.492 2.048-4.464-33.464-2.977 115.095-225.682h-44.859l-61.44 119.044c-56.359 76.383-92.344 84.817-100.727 84.817-20.701 0-24.589-19.838-18.454-40.181 13.042-37.199 75.872-143.336 83.014-163.68h-76.908l-.864 2.485 29.643 5.457h.486c-53.709 101.18-82.139 152.765-89.442 173.6-10.957 31.246-3.522 55.054 39.622 58.524 10.903-2.972 78.44-36.703 137.543-119.532zM1493.005 843.387c47.905-29.755 118.994-77.869 145.355-106.642h1.969l-52.08 102.178h75.422l1.365-2.48-30.129-5.453 114.425-225.189c-5.698-3.47-42.575-7.929-51.449-7.929-77.837 13.888-198.853 103.164-225.805 180.044-12.341 35.216-4.818 62.996 20.926 65.472zm28.725-66.461c24.169-68.945 99.039-160.21 156.226-160.21 11.343 0 20.48 3.478 27.241 10.915l-75.185 107.628c-23.027 26.289-91.806 73.41-97.713 73.41-14.769-1.487-16.476-14.882-10.568-31.743zM1133.357 845.253c15.49 0 28.048-12.635 28.048-28.219 0-15.586-12.558-28.22-28.048-28.22s-28.048 12.635-28.048 28.22c0 15.584 12.557 28.219 28.048 28.219zM154.512 941.543v39.771h6.751v-17.921h10.413l12.039 17.921h7.48l-14.417-20.844 4.331-7.878c2.442-4.503 3.663-5.481 5.692-5.481.654 0 1.058.164 1.625.324l1.143-6.38c-.652-.328-1.625-.498-2.605-.498-4.394 0-6.913 1.722-10.491 8.514l-4.79 8.837h-10.421v-16.364h-6.751zM208.775 941.544h-6.749v39.771h6.749V963.64h20.173v17.675h6.751v-39.771h-6.751v16.121h-20.173v-16.121zM272.563 958.562c1.462-2.367 3.742-6.056 5.203-8.504h.327c-.242 5.152-.654 10.472-.654 14.729v16.528h6.51v-39.771h-6.183l-14.962 22.667c-1.469 2.456-3.74 6.056-5.211 8.508h-.327c.249-5.07.654-10.391.654-14.647v-16.528h-6.509v39.771h6.182l14.97-22.752zM334.621 941.544h-30.749v39.771h6.751v-34.286h23.998v-5.485zM347.41 971.005c0 7.115 6.105 11.294 13.508 11.294 5.53 0 11.222-2.95 15.531-6.388h.248l.568 5.402h5.615v-24.384c0-9.901-5.288-16.372-16.106-16.372-6.913 0-13.586 3.114-17.653 5.732l2.691 4.584c3.655-2.292 8.693-4.748 13.827-4.748 7.645 0 10.241 4.584 10.491 9.987-20.422 1.636-28.719 5.975-28.719 14.894zm28.72-10.395v10.312c-4.557 3.764-8.951 5.892-13.422 5.892-4.55 0-8.625-1.804-8.625-6.307 0-5.234 5.125-8.586 22.048-9.897zM415.667 982.3c9.51 0 17.971-7.941 17.971-21.446 0-12.354-5.692-20.296-16.346-20.296-4.798 0-10.009 2.539-13.664 6.06h-.249l-.567-5.074h-5.53v56.548h6.751V984.67l-.327-7.526h.164c3.576 3.27 8.134 5.157 11.797 5.157zm-11.635-30.115c3.982-4.096 8.049-5.896 11.549-5.896 7.893 0 11.143 5.809 11.143 14.564 0 9.823-5.211 15.711-12.201 15.711-2.683 0-6.828-1.225-10.491-4.58v-19.799zM479.776 981.315v-39.771h-6.751v16.121h-20.173v-16.121h-6.749v39.771h6.749V963.64h20.173v17.675h6.751zM493.609 953.328c0 6.9 4.511 10.613 10.04 11.893l-11.829 16.094h7.567l11.214-15.546h10.747v15.546h6.751v-39.771h-19.52c-8.546 0-14.97 3.029-14.97 11.784zm16.105-6.38h11.634v13.582h-11.634c-5.941 0-9.433-2.375-9.433-7.038 0-4.746 3.492-6.544 9.433-6.544zM791.093 981.315v-34.286h15.616v-5.485h-38.068v5.485h15.616v34.286h6.836zM855.941 969.938c0-5.727-3.982-8.43-8.617-9.572v-.247c4.223-1.306 6.915-4.088 6.915-8.508 0-7.202-6.269-10.067-15.376-10.067h-18.298v39.771h18.944c9.605 0 16.433-3.517 16.433-11.377zm-28.791-22.99h11.059c6.672 0 9.518 1.634 9.518 5.316 0 3.685-2.846 5.809-10.008 5.809h-10.57v-11.125zm11.627 28.965h-11.626v-12.602h11.222c7.155 0 10.903 2.211 10.903 6.22 0 4.422-3.336 6.382-10.499 6.382zM904.834 961.507c0-13.337-9.107-20.95-19.519-20.95s-19.52 7.613-19.52 20.95c0 13.179 9.107 20.792 19.52 20.792s19.519-7.613 19.519-20.792zm-32.126 0c0-9.158 5.04-15.301 12.607-15.301s12.606 6.143 12.606 15.301c0 9.083-5.04 15.139-12.606 15.139s-12.607-6.056-12.607-15.139zM921.513 981.315h6.749v-34.286h24v-5.485h-30.749v39.771zM963.436 961.507c0 13.179 9.115 20.792 19.52 20.792 10.412 0 19.527-7.613 19.527-20.792 0-13.337-9.115-20.95-19.527-20.95-10.405 0-19.52 7.613-19.52 20.95zm32.126 0c0 9.083-5.04 15.139-12.606 15.139-7.559 0-12.607-6.056-12.607-15.139 0-9.158 5.048-15.301 12.607-15.301 7.566 0 12.606 6.143 12.606 15.301zM1345.864 981.315h6.354v-39.771h-8.153l-7.312 18.656c-1.063 3.275-2.284 6.386-3.492 9.656h-.328c-1.05-3.27-2.271-6.38-3.492-9.656l-7.483-18.656h-8.139v39.771h6.354v-17.839c0-3.517-.499-9.656-.827-13.748h.328c1.142 3.11 2.192 6.546 3.413 9.494l7.483 18.328h5.054l7.155-18.328c1.142-2.949 2.442-6.384 3.571-9.494h.328c-.328 4.092-.814 10.231-.814 13.748v17.839zM1389.791 981.315v-39.771h-25.049v5.485h18.301v34.286h6.748zM1385.721 922.719c-3.085 0-5.356 2.124-5.356 5.234 0 3.195 2.271 5.238 5.356 5.238 3.098 0 5.383-2.043 5.383-5.238 0-3.11-2.284-5.234-5.383-5.234zM1435.057 946.206c4.149 0 7.562 1.722 10.818 4.503l3.335-4.338c-3.256-3.193-7.982-5.814-14.402-5.814-11.947 0-22.042 7.613-22.042 20.95 0 13.179 9.269 20.792 21.635 20.792 5.855 0 11.317-2.293 15.701-6.224l-3.019-4.418c-3.243 2.782-7.312 4.989-12.183 4.989-9.032 0-15.216-6.056-15.216-15.139 0-9.158 6.262-15.301 15.373-15.301zM1482.883 981.315v-34.286h15.609v-5.485h-38.059v5.485h15.623v34.286h6.827zM1510.387 971.005c0 7.115 6.091 11.294 13.496 11.294 5.54 0 11.238-2.95 15.544-6.388h.236l.565 5.402h5.619v-24.384c0-9.901-5.291-16.372-16.108-16.372-6.905 0-13.575 3.114-17.644 5.732l2.691 4.584c3.663-2.292 8.691-4.748 13.824-4.748 7.641 0 10.24 4.584 10.489 9.987-20.414 1.636-28.711 5.975-28.711 14.894zm28.711-10.395v10.312c-4.555 3.764-8.94 5.892-13.43 5.892-4.542 0-8.612-1.804-8.612-6.307 0-5.234 5.12-8.586 22.042-9.897zM3.282 1013.9h36.092l1.936-10.237H19.745l16.961-84.32h21.798l1.936-10.235H24.348L3.281 1013.9zM1652.762 1003.663l-1.943 10.237h36.103l21.071-104.792h-36.089l-1.93 10.235h21.543l-16.949 84.32h-21.806z"/></svg>