<svg xmlns="http://www.w3.org/2000/svg" viewBox="0 0 1024 1024"><path fill="#fabc26" d="M476.397 3.386c-137.381 21.922-249.7 116.433-296.522 249.592-34.805 98.95-23.708 215.219 29.392 308.16 6.117 10.772 81.086 119.301 166.503 241.201C485.598 959.152 532.422 1024 535.669 1024c3.302 0 48.392-62.357 153.945-212.838 82.06-117.082 149.235-214.516 149.235-216.464 0-2.003-1.137-4.331-2.598-5.197-1.408-.921-80.112-19.161-174.892-40.598-94.782-21.49-178.032-40.867-184.962-43.141-60.138-19.54-109.341-73.671-124.011-136.461-6.333-26.902-3.952-74.321 4.981-100.573 20.964-61.644 71.106-108.261 133.532-123.897l1.305-.277c22.518-5.413 64.793-5.305 87.744.163 54.017 13.938 97.85 49.594 122.429 96.864l.5 1.055c13.912 28.094 17.593 43.033 19.108 76.647 1.624 37.025-3.626 61.817-19.866 94.24-11.422 22.68-37.296 52.884-56.891 66.364-6.008 4.168-10.988 9.202-10.988 11.259 0 2.003.434 3.626.866 3.626.487 0 35.725 7.957 78.326 17.593 42.6 9.689 78.976 17.051 80.815 16.348 5.197-2.003 28.581-38.865 39.406-62.196 20.19-43.304 30.475-90.396 30.475-139.709.004-.678.007-1.48.007-2.284 0-89.613-36.698-170.655-95.884-228.918l-.041-.041c-46.353-46.76-106.652-79.622-174.141-91.829l-1.997-.299c-26.253-4.547-87.149-4.602-115.675-.055z"/></svg>