<svg xmlns="http://www.w3.org/2000/svg" viewBox="0 0 1024 1024"><path fill="#ed1c24" d="M493.341 4.871c-13.119 8.057-194.048 194.565-194.048 200.039 0 8.729 7.283 10.02 56.66 10.02 27.839 0 49.223 1.032 51.96 2.479 11.208 5.991 11.931 11.673 11.931 94.002v77.423l6.817 6.869c9.4 9.4 16.837 10.071 96.016 9.194 64.562-.723 68.28-1.032 74.737-5.785 12.551-9.348 12.757-10.95 12.81-93.021v-76.339l6.249-7.386 6.249-7.437h45.761c26.91 0 47.621-1.032 50.358-2.479 2.84-1.549 4.7-5.062 4.7-8.986 0-5.32-17.096-23.604-94.622-101.336-52.011-52.166-97.515-96.378-101.13-98.289-9.039-4.803-25.773-4.286-34.45 1.032zM102.249 396.324C32.78 465.689 2.1 497.919.757 502.981c-.482 1.867-.757 4.011-.757 6.22 0 2.493.352 4.903 1.008 7.186l-.045-.184c1.188 3.357 46.278 50.875 100.304 105.727 82.898 84.188 99.064 99.529 104.023 98.806 4.648-.671 6.249-2.789 7.799-10.382 1.085-5.268 1.705-98.65 1.343-207.528-.723-204.842-.775-205.927-9.968-205.927-1.446 0-47.466 44.729-102.215 99.426zm715.555-91.368c-1.963 2.428-2.531 58.054-2.117 205.256.62 189.296.878 202.105 4.855 204.584 3.615 2.272 17.664-10.794 102.009-94.932 53.818-53.715 98.858-100.201 100.096-103.403 5.165-12.86.206-18.645-100.769-118.278-53.768-53.044-98.599-96.481-99.581-96.481s-2.995 1.498-4.494 3.254zM431.775 613.77c-11.466 6.199-11.828 9.297-12.499 97.67-.62 75.77-1.032 83.724-5.009 89.612-6.817 10.02-15.599 11.622-63.219 11.622-36.052 0-44.47.671-46.898 3.615-2.531 3.048 6.043 12.963 54.955 63.271 87.65 90.181 140.848 142.088 147.15 143.587 1.188.201 2.556.315 3.952.315a24.87 24.87 0 0 0 8.258-1.402l-.174.054c7.179-2.686 48.551-43.18 140.642-137.697 52.992-54.438 62.289-65.079 59.758-68.126-2.428-2.945-10.64-3.615-45.09-3.615-46.123 0-55.42-2.066-60.637-13.48-1.86-4.08-2.789-31.299-2.84-84.861-.155-88.373-.878-93.124-14.359-99.89-7.489-3.719-16.683-4.183-83.156-4.132-58.829.103-75.977.826-80.831 3.46z"/></svg>