<svg width="48" height="51" viewBox="0 0 48 51" fill="none" xmlns="http://www.w3.org/2000/svg">
  <ellipse cx="24" cy="47.5" rx="16" ry="3.5" fill="url(#paint0_radial_2915_171290)"/>
  <path d="M24 44.4554C23.9042 44.1677 23.8026 43.8666 23.696 43.5555C22.9435 41.3582 21.9259 38.6157 20.8944 36.5528C20.3352 35.4342 19.2565 34.0641 18.0558 32.5939C17.8049 32.2867 17.5465 31.9726 17.2825 31.6518C16.2501 30.3971 15.1328 29.0391 14.0516 27.5893C11.3115 23.9149 9 19.8962 9 16C9 7.73029 15.7303 1 24 1C32.2697 1 39 7.73029 39 16C39 19.8962 36.6885 23.9149 33.9484 27.5893C32.8672 29.0391 31.7499 30.3971 30.7175 31.6518C30.4535 31.9726 30.1951 32.2867 29.9442 32.5939C28.7435 34.0641 27.6648 35.4342 27.1056 36.5528C26.0741 38.6157 25.0565 41.3582 24.304 43.5555C24.1974 43.8666 24.0958 44.1677 24 44.4554Z" fill="white" stroke="#F5793B" stroke-width="2"/>
  <path fill-rule="evenodd" clip-rule="evenodd" d="M30.8345 12.3771C30.903 12.3553 30.9931 12.399 31.0833 12.5191C31.0833 12.5191 31.0833 12.5191 35.1585 16.5464C35.3965 16.7867 35.3965 17.1508 35.1585 17.3293C35.1585 17.3293 35.1585 17.3293 31.0833 21.4184C30.9931 21.5386 30.903 21.5677 30.8345 21.5313C30.7659 21.4949 30.7227 21.3893 30.7227 21.2364V12.6393C30.7227 12.49 30.7659 12.399 30.8345 12.3771Z" fill="#ED1C24"/>
  <path fill-rule="evenodd" clip-rule="evenodd" d="M23.8582 5.66602H24.1467L24.4244 5.78254C24.4244 5.78254 24.4244 5.78254 28.6186 9.99187C28.7989 10.2322 28.7376 10.4143 28.4383 10.4143C28.4383 10.4143 28.4383 10.4143 26.7 10.4143C26.4007 10.4143 26.1627 10.6546 26.1627 10.9568C26.1627 10.9568 26.1627 10.9568 26.1627 14.081C26.1627 14.3833 25.921 14.6236 25.5604 14.6236C25.5604 14.6236 25.5604 14.6236 22.5058 14.6236C22.2065 14.6236 21.9648 14.3833 21.9648 14.081C21.9648 14.081 21.9648 14.081 21.9648 10.9568C21.9648 10.6546 21.7268 10.4143 21.4239 10.4143H19.5666C19.2673 10.4143 19.206 10.2322 19.3863 9.99187C19.3863 9.99187 19.3863 9.99187 23.5841 5.78254L23.8582 5.66602Z" fill="#ED1C24"/>
  <path fill-rule="evenodd" clip-rule="evenodd" d="M17.2862 12.2862C17.362 12.3226 17.4089 12.4282 17.4089 12.5811V21.3566C17.4089 21.5095 17.362 21.6006 17.2862 21.6297C17.2141 21.6588 17.1095 21.6297 16.9869 21.5387C16.9869 21.5387 16.9869 21.5387 12.8504 17.3293C12.6124 17.1509 12.6124 16.7868 12.8504 16.5465C12.8504 16.5465 12.8504 16.5465 16.9869 12.399C17.1095 12.2789 17.2141 12.2497 17.2862 12.2862Z" fill="#ED1C24"/>
  <path fill-rule="evenodd" clip-rule="evenodd" d="M22.505 19.1934C22.505 19.1934 22.505 19.1934 25.5596 19.1934C25.9203 19.1934 26.1619 19.4337 26.1619 19.7359C26.1619 19.7359 26.1619 19.7359 26.1619 23.0422C26.1619 23.4027 26.3999 23.643 26.6993 23.643H28.3185C28.6179 23.643 28.7369 23.8214 28.4988 24.0035C28.4988 24.0035 28.4988 24.0035 24.4236 28.1509C24.301 28.2711 24.1532 28.333 24.0017 28.333C23.8538 28.333 23.7024 28.2711 23.5833 28.1509C23.5833 28.1509 23.5833 28.1509 19.5081 24.0035C19.2665 23.8214 19.3855 23.643 19.6848 23.643C19.6848 23.643 19.6848 23.643 21.4231 23.643C21.7261 23.643 21.9641 23.4027 21.9641 23.0422C21.9641 23.0422 21.9641 23.0422 21.9641 19.7359C21.9641 19.4337 22.2057 19.1934 22.505 19.1934Z" fill="#ED1C24"/>
  <defs>
    <radialGradient id="paint0_radial_2915_171290" cx="0" cy="0" r="1" gradientUnits="userSpaceOnUse" gradientTransform="translate(24 47.5) scale(16 3.5)">
      <stop stop-color="#2A2A2A"/>
      <stop offset="0.26" stop-color="#737373"/>
      <stop offset="1" stop-color="#F1F1F1" stop-opacity="0.34"/>
    </radialGradient>
  </defs>
</svg>
