<svg width="48" height="51" viewBox="0 0 48 51" fill="none" xmlns="http://www.w3.org/2000/svg">
<ellipse cx="24" cy="47.5" rx="16" ry="3.5" fill="url(#paint0_radial_3217_82979)"/>
<path d="M24 46.0694C23.7937 45.4218 23.5291 44.6111 23.223 43.7175C22.4717 41.524 21.4629 38.8078 20.4472 36.7764C19.9176 35.7171 18.8783 34.3914 17.6685 32.9101C17.4198 32.6057 17.1629 32.2934 16.8999 31.9737C15.8668 30.7182 14.7399 29.3486 13.6508 27.8882C10.9057 24.2072 8.5 20.0728 8.5 16C8.5 7.45414 15.4541 0.5 24 0.5C32.5459 0.5 39.5 7.45414 39.5 16C39.5 20.0728 37.0943 24.2072 34.3492 27.8882C33.2601 29.3486 32.1331 30.7183 31.1001 31.9738C30.8371 32.2934 30.5802 32.6057 30.3315 32.9101C29.1217 34.3914 28.0824 35.7171 27.5528 36.7764C26.5371 38.8078 25.5283 41.524 24.777 43.7175C24.4709 44.6111 24.2063 45.4218 24 46.0694Z" fill="#223651" stroke="#8F8F8F"/>
<rect x="14.25" y="7.25" width="19.5" height="19.5" rx="3.25" fill="#223651"/>
<path d="M22.2912 22.3097H22.3471C23.1174 23.0592 24.0929 23.5 24.9254 23.5C26.9244 23.5 28.75 21.7476 28.75 18.731C28.75 16.0163 27.4806 14.2574 25.2141 14.2574C24.2529 14.2574 23.2171 14.7433 22.4775 15.511H22.4216L22.4984 13.8902V10.5H20.75V23.2836H22.1312L22.2912 22.3097ZM22.4984 16.9321C23.2765 16.1114 24.0591 15.7551 24.7615 15.7551C26.3067 15.7551 26.9597 16.9106 26.9597 18.7558C26.9597 20.8386 25.928 22.0023 24.5915 22.0023C24.0161 22.0023 23.2097 21.762 22.4984 21.1001V16.9321Z" fill="#EFECE4"/>
<defs>
  <radialGradient id="paint0_radial_3217_82979" cx="0" cy="0" r="1" gradientUnits="userSpaceOnUse" gradientTransform="translate(24 47.5) scale(16 3.5)">
    <stop stop-color="#2A2A2A"/>
    <stop offset="0.26" stop-color="#737373"/>
    <stop offset="1" stop-color="#F1F1F1" stop-opacity="0.34"/>
  </radialGradient>
</defs>
</svg>
