<svg width="48" height="51" viewBox="0 0 48 51" fill="none" xmlns="http://www.w3.org/2000/svg">
  <ellipse cx="24" cy="47.5" rx="16" ry="3.5" fill="url(#paint0_radial_3217_82977)"/>
  <path d="M24 44.4554C23.9042 44.1677 23.8026 43.8666 23.696 43.5555C22.9435 41.3582 21.9259 38.6157 20.8944 36.5528C20.3352 35.4342 19.2565 34.0641 18.0558 32.5939C17.8049 32.2867 17.5465 31.9726 17.2825 31.6518C16.2501 30.3971 15.1328 29.0391 14.0516 27.5893C11.3115 23.9149 9 19.8962 9 16C9 7.73029 15.7303 1 24 1C32.2697 1 39 7.73029 39 16C39 19.8962 36.6885 23.9149 33.9484 27.5893C32.8672 29.0391 31.7499 30.3971 30.7175 31.6518C30.4535 31.9726 30.1951 32.2867 29.9442 32.5939C28.7435 34.0641 27.6648 35.4342 27.1056 36.5528C26.0741 38.6157 25.0565 41.3582 24.304 43.5555C24.1974 43.8666 24.0958 44.1677 24 44.4554Z" fill="#223651" stroke="#F5793B" stroke-width="2"/>
  <rect x="14.25" y="7.25" width="19.5" height="19.5" rx="3.25" fill="#223651"/>
  <path d="M22.2912 22.3097H22.3471C23.1174 23.0592 24.0929 23.5 24.9254 23.5C26.9244 23.5 28.75 21.7476 28.75 18.731C28.75 16.0163 27.4806 14.2574 25.2141 14.2574C24.2529 14.2574 23.2171 14.7433 22.4775 15.511H22.4216L22.4984 13.8902V10.5H20.75V23.2836H22.1312L22.2912 22.3097ZM22.4984 16.9321C23.2765 16.1114 24.0591 15.7551 24.7615 15.7551C26.3067 15.7551 26.9597 16.9106 26.9597 18.7558C26.9597 20.8386 25.928 22.0023 24.5915 22.0023C24.0161 22.0023 23.2097 21.762 22.4984 21.1001V16.9321Z" fill="#EFECE4"/>
  <defs>
    <radialGradient id="paint0_radial_3217_82977" cx="0" cy="0" r="1" gradientUnits="userSpaceOnUse" gradientTransform="translate(24 47.5) scale(16 3.5)">
      <stop stop-color="#2A2A2A"/>
      <stop offset="0.26" stop-color="#737373"/>
      <stop offset="1" stop-color="#F1F1F1" stop-opacity="0.34"/>
    </radialGradient>
  </defs>
</svg>