<svg width="40" height="25" viewBox="0 0 40 25" fill="none" xmlns="http://www.w3.org/2000/svg">
<path fill-rule="evenodd" clip-rule="evenodd" d="M19.9633 21.3502C17.8819 23.1463 15.182 24.2306 12.2318 24.2306C5.64897 24.2306 0.3125 18.8322 0.3125 12.1729C0.3125 5.51365 5.64897 0.115234 12.2318 0.115234C15.182 0.115234 17.8819 1.19952 19.9633 2.99564C22.0446 1.19952 24.7445 0.115234 27.6947 0.115234C34.2776 0.115234 39.614 5.51365 39.614 12.1729C39.614 18.8322 34.2776 24.2306 27.6947 24.2306C24.7445 24.2306 22.0446 23.1463 19.9633 21.3502Z" fill="#ED0006"/>
<path fill-rule="evenodd" clip-rule="evenodd" d="M19.9629 21.3502C22.5257 19.1386 24.1508 15.8478 24.1508 12.1729C24.1508 8.49811 22.5257 5.20724 19.9629 2.99564C22.0443 1.19952 24.7441 0.115234 27.6943 0.115234C34.2772 0.115234 39.6137 5.51365 39.6137 12.1729C39.6137 18.8322 34.2772 24.2306 27.6943 24.2306C24.7441 24.2306 22.0443 23.1464 19.9629 21.3502Z" fill="#F9A000"/>
<path fill-rule="evenodd" clip-rule="evenodd" d="M19.9632 21.35C22.5259 19.1384 24.1509 15.8476 24.1509 12.1728C24.1509 8.49803 22.5259 5.20721 19.9632 2.99561C17.4004 5.20721 15.7754 8.49803 15.7754 12.1728C15.7754 15.8476 17.4004 19.1384 19.9632 21.35Z" fill="#FF5E00"/>
</svg>
