<svg xmlns="http://www.w3.org/2000/svg" viewBox="0 0 1024 1024"><path d="M28.939 172.761c-9.446 3.352-18.485 10.765-23.564 19.298-6.5 11.071-7.11 28.338-1.32 40.018 5.993 12.188 17.267 21.025 30.369 23.869 7.618 1.625 734.138 1.625 741.858 0 13.407-2.844 24.783-11.782 30.572-23.97 3.047-6.5 3.25-7.516 3.25-18.587s-.203-11.985-3.25-18.384c-4.063-8.227-13.102-17.165-21.329-21.025l-5.891-2.742-372.757-.203c-357.623-.203-372.96-.102-377.937 1.726zM35.44 469.341c-14.727 2.539-28.338 14.22-33.213 28.642-7.516 22.142 3.758 45.807 26.103 54.847l5.789 2.336H989.88l5.789-2.336c17.571-7.11 28.236-22.548 28.236-40.831s-10.665-33.721-28.236-40.831l-5.789-2.336-474.834-.102c-261.133-.102-476.966.203-479.607.609zM33.104 768.359c-12.696 3.149-23.259 11.68-29.049 23.564-2.844 5.688-3.453 8.125-3.758 15.642-.711 14.321 3.149 24.478 12.696 33.618 5.789 5.485 10.157 8.227 17.064 10.462 4.672 1.524 25.9 1.625 249.453 1.422l244.171-.305 6.907-3.352c12.798-6.297 21.837-18.587 24.173-32.705 3.555-22.142-12.29-44.589-34.533-48.753-8.633-1.625-480.521-1.219-487.123.406z"/></svg>