<svg xmlns="http://www.w3.org/2000/svg" viewBox="0 0 2905 1024"><path fill="#0052f6" d="M160.744 0h2595.721c78.913 0 142.884 63.971 142.884 142.884v738.233c0 78.913-63.971 142.884-142.884 142.884H160.744c-78.913 0-142.884-63.971-142.884-142.884V142.884C17.86 63.971 81.831 0 160.744 0z"/><path fill="#fff" d="M1170.646 724.968v-89.017h-45.175l62.393-98.685h-52.557l-58.297 96.28h-50.081v-96.28h-49.247v242.736h49.247V678.078h95.256v57.439c0 29.124 17.265 44.484 47.628 44.484h22.147v-42.865h-9.049c-7.382 0-12.312-4.882-12.312-12.145h.048zm163.697-191.75c-72.228 0-121.523 50.986-121.523 125.404s44.342 125.404 125.619 125.404c51.748 0 86.207-19.432 106.758-43.722l-33.649-29.101c-13.955 17.789-36.983 31.577-73.061 31.577-43.532 0-70.608-26.719-76.348-68.775h189.654c1.667-5.692 1.667-9.692 1.667-15.384 0-76.038-46.818-125.404-119.07-125.404h-.048zm-71.441 103.591c7.382-38.864 32.863-63.155 71.442-63.155s62.393 23.481 68.941 63.131h-140.383zm508.475 100.304h-93.589V537.266h-49.295v199.847h-93.589V537.266h-49.247v242.736h334.967V537.266h-49.247v199.847zm291.197-163.078c-18.146-9.645-38.245-14.455-60.345-14.455-19.885 0-38.15 3.62-54.844 10.883-16.67 7.287-29.672 17.384-38.983 30.315v-8.525c0-24.624 7.144-43.341 21.433-56.153 14.217-12.788 34.673-19.194 61.297-19.194h104.853v-73.49h-45.699v27.934h-55.796c-24.385 0-46.413 5.001-66.108 14.955-19.876 10.18-35.876 25.499-46.602 44.225l-.288.545c-11.526 19.908-17.479 44.246-17.789 73.014v51.676c0 26.862 5.763 49.985 17.313 69.441 11.254 19.033 27.301 34.171 46.509 44.019l.642.299c19.885 10.121 42.341 15.169 67.322 15.169 23.433 0 44.77-5.001 63.964-14.955 18.8-9.585 34.124-23.626 44.972-40.78l.275-.466c10.257-16.291 16.343-36.104 16.343-57.339 0-.42-.002-.84-.007-1.259l.001.064c0-21.48-5.215-39.269-15.646-56.153-10.546-16.892-25.033-30.417-42.22-39.528l-.598-.289v.024zm-3.096 133.454c-6.739 10.764-15.955 19.218-27.672 25.362-11.073 5.856-24.204 9.294-38.138 9.294-.373 0-.744-.002-1.116-.007l.056.001c-14.407 0-27.481-3.12-39.198-9.287-11.463-5.959-20.816-14.578-27.477-25.074l-.171-.288c-6.339-9.995-10.102-22.167-10.102-35.218 0-.286.002-.571.005-.855v.043c0-13.312 3.358-25.29 10.097-36.054 6.716-10.716 15.955-19.194 27.648-25.362 11.064-5.842 24.181-9.271 38.099-9.271.386 0 .772.003 1.157.008l-.058-.001c.35-.005.764-.008 1.178-.008 13.894 0 26.985 3.439 38.468 9.512l-.448-.216c11.453 5.964 20.802 14.573 27.477 25.051l.171.287c6.739 10.764 10.097 22.742 10.097 36.054 0 13.288-3.358 25.267-10.097 36.031zm211.516-174.271c-72.228 0-121.523 50.986-121.523 125.404s44.342 125.404 125.619 125.404c51.724 0 86.207-19.432 106.758-43.722l-33.649-29.101c-13.955 17.789-36.912 31.577-73.061 31.577-43.532 0-70.608-26.719-76.348-68.775h189.654c1.643-5.692 1.643-9.692 1.643-15.384 0-76.038-46.794-125.404-119.07-125.404h-.024zm-71.442 103.591c7.382-38.864 32.863-63.155 71.442-63.155s62.393 23.481 68.941 63.131h-140.383zm436.772 100.304c-7.382 0-12.312-4.858-12.312-12.145v-89.017h-45.151l62.416-98.685h-52.581l-58.273 96.28h-50.081v-96.28h-49.247v242.736h49.247V678.078h95.256v57.439c0 29.124 17.265 44.484 47.628 44.484h22.147v-42.865h-9.049z"/><path fill="#ffd300" d="M725.397 417.03h65.75c-30.529-78.967-95.946-132.501-176.295-137.24 49.676 30.887 88.874 79.181 110.544 137.24zm-18.385 103.472c0-132.929-98.495-241.069-219.541-241.069-121.023 0-219.565 108.139-219.565 241.069 0 132.953 98.495 241.069 219.517 241.069 121.046 0 219.541-108.115 219.541-241.069h.048zm-117.117 18.265h-155.91l52.319 65.274-29.029 22.623-85.016-106.163 85.016-105.924 29.029 22.623-52.272 65.06h155.862v36.507zm25.005 222.47c80.658-4.739 146.218-58.654 176.604-138.097h-65.798c-21.599 58.392-60.964 107.044-110.854 138.121h.048zm121.642-174.556h65.965c3.501-15.36 5.787-31.363 6.739-47.961h-65.893c-1.073 17.622-3.498 34.028-7.204 49.943l.393-2.005zm-.167-133.168c3.62 15.765 5.977 32.077 6.977 48.795h65.893c-1.034-17.896-3.505-34.607-7.323-50.798l.394 1.979h-65.965z"/><path fill="#fff" d="M998.519 363.472h57.034v51.843h31.553V285.696h-31.553v49.271h-57.011v-49.271h-31.553v129.619h31.553v-51.843zm237.02 51.843v-26.791h-5.239c-5.239 0-7.906-2.572-7.906-7.787v-54.01c0-26.791-19.718-43.175-53.057-43.175-23.242 0-42.508 7.787-57.868 22.028l18.861 19.48c10.526-10.383 23.242-15.979 37.269-15.979 15.765 0 25.409 6.073 25.409 15.122s-10.954 10.788-28.029 12.955c-25.005 3.024-56.558 9.526-56.558 42.341 0 22.885 17.527 38.007 42.96 38.007 19.289 0 36.388-8.216 46.056-21.194 2.191 13.836 10.526 19.908 26.743 19.908 5.668 0 9.216-.429 11.407-.857l-.048-.048zm-43.389-50.128c0 15.122-15.336 27.648-34.221 27.648-11.836 0-18.813-6.073-18.813-15.955 0-14.288 14.455-16.432 29.339-19.051 10.954-1.715 18.408-3.024 23.695-6.025v13.383zm170.413 80.348h30.244v-58.297h-17.527V285.695h-31.553v101.543h-55.725V285.695h-31.53v129.619h106.091v30.244zm82.015-159.839h-31.553v129.619h31.553V285.696zm1.358-44.961h-34.244v27.648h34.221v-27.648zm157.076 109.783c0-40.627-26.743-66.965-67.941-66.965s-67.941 26.767-67.941 66.965 26.719 66.941 67.941 66.941c41.198 0 67.941-26.767 67.941-66.965zm-103.471 0c0-25.505 13.574-41.055 35.53-41.055s35.507 15.551 35.507 41.055-13.574 41.031-35.507 41.031-35.53-15.551-35.53-41.031zm157.005 12.954h57.011v51.843h31.553V285.696h-31.553v49.271h-57.011v-49.271h-31.553v129.619h31.553v-51.843zm236.997 51.843v-26.791h-5.239c-5.239 0-7.906-2.572-7.906-7.787v-54.01c0-26.791-19.766-43.175-53.057-43.175-23.242 0-42.508 7.787-57.892 22.028l18.884 19.48c10.526-10.383 23.242-15.979 37.269-15.979 15.765 0 25.433 6.073 25.433 15.122s-10.954 10.788-28.053 12.955c-25.005 3.024-56.558 9.526-56.558 42.341 0 22.885 17.527 38.007 42.96 38.007 19.313 0 36.388-8.216 46.056-21.194 2.191 13.836 10.526 19.908 26.743 19.908 5.668 0 9.216-.429 11.407-.857l-.048-.048zm-43.389-50.128c0 15.122-15.336 27.648-34.221 27.648-11.836 0-18.813-6.073-18.813-15.955 0-14.288 14.455-16.432 29.339-19.051 10.978-1.715 18.408-3.024 23.695-6.025v13.383zm106.091-9.954v-41.436h47.39v101.519h31.53V285.697h-110.068v66.108c0 31.53-3.072 35.435-13.574 35.435h-7.501v28.1c3.501.405 8.811.833 13.598.833 28.053 0 38.579-14.669 38.579-60.916h.048zm223.256 18.194c0-25.933-18.837-41.913-49.557-41.913h-32.911v-45.818h-31.53v129.619h64.441c30.244 0 49.533-15.955 49.533-41.913zm-53.939 17.265h-28.481v-35.007h28.481c14.05 0 21.956 6.073 21.956 17.265s-7.93 17.694-21.956 17.694v.048zm102.781-27.22h57.011v51.843h31.553V285.696h-31.553v49.271h-57.011v-49.271h-31.553v129.619h31.553v-51.843zm208.634-33.72v85.564h30.672V285.697h-31.53l-57.916 85.516v-85.492h-31.101v129.596h31.553l58.32-85.564zm121.57-56.153c24.552 0 40.341-12.097 42.508-31.577l-24.124-3.429c-1.738 9.93-8.764 15.098-18.384 15.098s-16.646-5.168-18.408-15.098l-24.1 3.429c2.167 19.48 17.956 31.577 42.508 31.577zm29.411 56.153v85.564h30.672V285.697h-31.601l-57.844 85.516v-85.492h-31.149v129.596h31.577l58.344-85.564z"/></svg>