<svg xmlns="http://www.w3.org/2000/svg" viewBox="0 0 1024 1024"><path d="M513.161 0H307.209c-145.417 0-263.3 117.889-263.3 263.317v585.14h2.073C60.178 947.708 145.529 1024 248.698 1024H921.58c32.317 0 58.511-26.198 58.511-58.516V87.772c0-48.475-39.296-87.77-87.765-87.77h-88.929c-7.129 0-12.598 6.322-11.658 13.39 16.152 120.966 14.15 243.739-5.994 364.25l-.855 5.113c-.992 5.951-5.543 10.682-11.447 11.911-5.908 1.229-11.963-1.297-15.25-6.355l-95.005-146.362c-2.307-3.554-7.512-3.554-9.819 0l-95.005 146.362c-3.283 5.057-9.342 7.584-15.25 6.355-5.904-1.229-10.45-5.959-11.447-11.911l-.855-5.113c-20.145-120.512-22.147-243.286-5.994-364.25.941-7.067-4.525-13.39-11.658-13.39zM248.699 702.171h643.629v234.058H248.699c-64.63 0-117.023-52.397-117.023-117.031 0-64.63 52.393-117.027 117.023-117.027z"/></svg>