<svg viewBox="0 0 24 24" xmlns="http://www.w3.org/2000/svg">
<path d="M10.2417 6.5H8.6703C8.06279 6.5 7.57031 6.99248 7.57031 7.59999V16.4C7.57031 17.0075 8.06279 17.5 8.6703 17.5H10.2417C10.8492 17.5 11.3417 17.0075 11.3417 16.4V7.59999C11.3417 6.99248 10.8492 6.5 10.2417 6.5Z" fill="currentColor"/>
<path d="M15.8999 6.5H14.3285C13.721 6.5 13.2285 6.99248 13.2285 7.59999V16.4C13.2285 17.0075 13.721 17.5 14.3285 17.5H15.8999C16.5074 17.5 16.9999 17.0075 16.9999 16.4V7.59999C16.9999 6.99248 16.5074 6.5 15.8999 6.5Z" fill="currentColor"/>
</svg>
