<svg xmlns="http://www.w3.org/2000/svg" viewBox="0 0 1024 1024"><path fill="#231f20" d="M232.169 850.382v-45.324c.041-.56.064-1.213.064-1.866 0-7.375-2.971-14.055-7.772-18.908l.003.003c-4.875-4.925-11.636-7.975-19.107-7.975-.557 0-1.11.02-1.657.052l.074-.004c-.542-.037-1.177-.062-1.818-.062-4.603 0-8.952 1.113-12.78 3.084l.155-.071c-4.517 2.322-8.216 5.679-10.87 9.776l-.064.107c-4.724-7.763-13.132-12.861-22.739-12.861-.401 0-.792.01-1.187.023l.058-.002c-.361-.021-.779-.028-1.201-.028-8.303 0-15.616 4.237-19.895 10.668l-.057.088v-8.912h-15.713v72.208h15.86v-40.033c-.105-.699-.158-1.503-.158-2.323 0-9.328 7.56-16.888 16.888-16.888.331 0 .663.011.993.026l-.046-.002c10.421 0 15.713 6.798 15.713 19.033v40.188h15.86v-40.033c-.089-.654-.141-1.406-.141-2.171 0-4.458 1.713-8.513 4.514-11.547l-.012.013c3.123-3.383 7.58-5.496 12.528-5.496.277 0 .546.008.82.021l-.038-.002c10.723 0 15.86 6.798 15.86 19.033v40.188h15.86zm234.757-72.207h-25.683v-21.906h-15.86v21.906h-14.654v14.354h14.654v32.93c0 16.767 6.495 26.74 25.079 26.74h.107c7.237 0 13.985-2.08 19.683-5.679l-.15.09-4.528-13.447c-3.974 2.412-8.748 3.905-13.847 4.08l-.05.002c-7.855 0-10.423-4.834-10.423-12.087v-32.627h25.683v-14.354zm134.002-1.817c-.192-.007-.408-.011-.632-.011-3.794 0-7.359.995-10.445 2.735l.107-.057c-3.371 1.901-6.1 4.578-8.009 7.806l-.056.101v-8.757h-15.559v72.208h15.713v-40.49c0-11.933 5.136-18.584 15.411-18.584 3.359-.044 6.696.575 9.819 1.816l4.834-14.803c-3.323-1.227-7.166-1.947-11.173-1.964h-.008zm-202.585 7.556c-7.89-4.768-17.414-7.586-27.599-7.586-.657 0-1.305.014-1.953.033l.095-.003c-18.281 0-30.059 8.761-30.059 23.115 0 11.786 8.76 19.033 24.922 21.299l7.403 1.054c8.613 1.208 12.687 3.478 12.687 7.551 0 5.589-5.743 8.761-16.466 8.761-.328.012-.718.019-1.109.019-8.627 0-16.594-2.845-23.011-7.637l.103.07-7.401 12.235c8.321 5.876 18.668 9.391 29.838 9.391.503 0 1.005-.008 1.51-.021l-.072.002c20.849 0 32.93-9.819 32.93-23.568 0-12.686-9.52-19.335-25.225-21.601l-7.401-1.058c-6.798-.907-12.237-2.262-12.237-7.096 0-5.287 5.135-8.459 13.75-8.459 8.304.13 16.047 2.414 22.734 6.311l-.223-.118 6.798-12.686zm420.872-7.556c-.192-.007-.408-.011-.632-.011-3.794 0-7.359.995-10.445 2.735l.107-.057c-3.371 1.901-6.1 4.578-8.009 7.806l-.056.101v-8.757h-15.559v72.208h15.713v-40.49c0-11.933 5.136-18.584 15.408-18.584.102-.002.219-.003.335-.003 3.415 0 6.676.664 9.655 1.876l-.172-.064 4.834-14.803c-3.323-1.228-7.166-1.947-11.173-1.964h-.008zm-202.429 37.919c-.021.446-.028.963-.028 1.486 0 4.827.936 9.434 2.636 13.657l-.088-.243c1.975 4.92 4.804 9.114 8.335 12.595l.006.005c6.582 6.482 15.625 10.484 25.602 10.484.726 0 1.447-.021 2.161-.064l-.101.005c.567.028 1.225.048 1.895.048 9.177 0 17.599-3.273 24.151-8.707l-.064.051-7.551-12.689c-5.184 3.983-11.744 6.411-18.863 6.495h-.021c-6.119-.383-11.539-3.088-15.451-7.234l-.012-.013c-4.043-4.296-6.292-9.969-6.292-15.868v-.004c0-12.296 9.582-22.353 21.685-23.107l.064-.004c7.141.085 13.702 2.512 18.96 6.553l-.074-.058 7.551-12.689c-6.484-5.387-14.903-8.659-24.076-8.659-.666 0-1.335.02-1.991.053l.094-.004c-.62-.037-1.348-.062-2.075-.062-4.621 0-9.043.861-13.111 2.427l.248-.084c-9.673 3.711-17.21 11.142-20.983 20.489l-.088.243c-1.615 3.971-2.552 8.578-2.552 13.41 0 .526.013 1.048.031 1.562l-.003-.072zm147.142 0v-36.102h-15.713v8.757c-2.673-3.417-6.058-6.145-9.951-7.985l-.166-.069c-3.376-1.604-7.338-2.542-11.517-2.542-.411 0-.827.011-1.233.025l.061-.002c-10.119.512-19.123 4.911-25.618 11.724l-.017.018c-6.482 6.797-10.466 16.023-10.466 26.178s3.989 19.381 10.483 26.196l-.017-.018c6.512 6.824 15.511 11.23 25.543 11.738l.092.004c.35.019.756.022 1.172.022 8.774 0 16.581-4.127 21.595-10.543l.046-.063v8.761h15.713v-36.105zm-58.465 0c.673-11.529 10.187-20.617 21.822-20.617 1.776 0 3.501.211 5.156.613l-.15-.028c9.738 2.342 16.868 10.978 16.868 21.285 0 3.107-.65 6.065-1.818 8.747l.057-.143c-3.416 7.844-11.088 13.232-20.019 13.263h-.005c-.085.001-.189.002-.285.002-9.333 0-17.287-5.897-20.341-14.171l-.049-.15c-.811-2.184-1.281-4.706-1.281-7.338 0-.512.021-1.018.054-1.52l-.004.065zm-189.591-37.919c-20.084 1.091-35.955 17.641-35.955 37.893 0 .189.002.371.005.56v-.026c.29 20.402 16.64 36.895 36.96 37.412l.049.001c.456.02.998.024 1.536.024 10.711 0 20.52-3.833 28.14-10.204l-.067.059-7.707-11.631c-5.707 4.6-13.011 7.427-20.973 7.551h-.024c-.502.045-1.091.068-1.683.068-10.261 0-18.722-7.71-19.913-17.649l-.011-.097h53.631c.15-1.96.302-3.924.302-6.042-.15-22.511-14.052-37.918-34.292-37.918zm-.299 14.052c.107-.003.229-.004.351-.004 9.762 0 17.699 7.8 17.929 17.505v.021h-37.461c.578-9.803 8.664-17.531 18.559-17.531.22 0 .44.004.658.013l-.03-.001zm394.131 23.867v-65.109h-15.713v37.764c-5.058-6.477-12.862-10.596-21.632-10.596-.41 0-.825.011-1.231.025l.061-.002c-9.734.479-18.915 4.683-25.639 11.742s-10.467 16.432-10.467 26.177v.007c0 20.311 15.954 36.902 36.015 37.911l.091.004c4.37.188 8.717-.678 12.686-2.516s7.438-4.602 10.119-8.061v8.761h15.713v-36.105zm26.19 25.642h.045c1.007 0 1.971.206 2.845.578l-.048-.021c.902.382 1.672.902 2.326 1.541l-.001-.001c.649.639 1.177 1.396 1.548 2.245l.021.047c.364.822.574 1.776.574 2.783s-.21 1.961-.588 2.829l.021-.046c-.393.884-.92 1.644-1.562 2.28l-.001.001c-.654.638-1.424 1.161-2.276 1.525l-.049.021c-.819.364-1.775.575-2.774.575h-.067.004c-.021 0-.054.001-.081.001-1.476 0-2.849-.441-4-1.192l.025.02c-1.198-.79-2.134-1.883-2.711-3.177l-.021-.047c-.362-.823-.57-1.776-.571-2.785 0-.958.193-1.904.571-2.781.391-.887.918-1.647 1.562-2.289.654-.642 1.429-1.164 2.287-1.519l.049-.021c.838-.358 1.818-.564 2.845-.564h.05-.003zm0 12.769h.039c.768 0 1.5-.16 2.161-.451l-.033.016c.681-.302 1.262-.706 1.757-1.197 1.005-1.014 1.629-2.417 1.629-3.958s-.62-2.941-1.63-3.958c-.492-.492-1.075-.888-1.722-1.174l-.035-.016c-.622-.277-1.351-.434-2.118-.434h-.049.003-.037c-.784 0-1.526.157-2.203.449l.036-.016c-.696.286-1.289.689-1.783 1.183-1.005 1.015-1.631 2.417-1.632 3.958 0 1.477.586 2.903 1.632 3.958 1.015 1.009 2.417 1.639 3.965 1.639h.022-.001zm.422-8.958c.06-.005.125-.007.193-.007.669 0 1.294.219 1.795.585l-.01-.007c.232.191.409.423.534.697s.177.567.162.862c.001.021.001.039.001.064 0 .51-.212.97-.553 1.302l-.001.001c-.419.374-.963.62-1.564.662l-.009.001 2.181 2.516h-1.706l-2.027-2.501h-.652v2.501h-1.426v-6.669h3.077zm-1.653 1.251v1.776h1.639c.316.018.623-.064.896-.224.202-.135.334-.364.334-.62 0-.021-.001-.038-.003-.06v.003c.001-.016.002-.027.002-.045 0-.257-.133-.485-.33-.616l-.003-.002c-.235-.141-.514-.223-.814-.223-.027 0-.06.001-.086.003h-1.634zm-83.419-30.704c.526-8.871 6.261-16.278 14.165-19.233l.15-.051c2.236-.84 4.815-1.33 7.513-1.33 1.776 0 3.497.21 5.152.61l-.15-.028c4.308 1.039 8.007 3.23 10.858 6.234l.01.011c3.708 3.913 5.992 9.21 5.992 15.039 0 3.107-.65 6.066-1.818 8.749l.057-.143c-3.418 7.842-11.089 13.229-20.019 13.259h-.005c-.088.001-.193.002-.293.002-6.182 0-11.765-2.591-15.712-6.751l-.01-.011c-1.995-2.105-3.579-4.621-4.608-7.409l-.049-.15c-.811-2.186-1.28-4.711-1.28-7.342 0-.509.02-1.013.054-1.519l-.004.065zm-530.55 0v-36.102h-15.713v8.757c-5.059-6.477-12.863-10.596-21.634-10.596-.411 0-.826.011-1.232.025l.061-.002c-20.151 1.016-36.103 17.606-36.103 37.917v.002c0 9.745 3.746 19.121 10.468 26.18s15.897 11.262 25.635 11.742c.35.019.756.022 1.172.022 8.773 0 16.58-4.127 21.594-10.543l.046-.063v8.761h15.713v-36.105zm-58.459 0c.265-4.468 1.826-8.521 4.315-11.842l-.041.059c2.53-3.378 5.939-5.968 9.894-7.45l.15-.051c2.236-.84 4.814-1.33 7.51-1.33 1.776 0 3.495.21 5.151.61l-.15-.028c4.308 1.038 8.007 3.23 10.858 6.234l.01.011c3.709 3.914 5.994 9.21 5.994 15.039 0 7.58-3.857 14.259-9.713 18.181l-.078.051c-3.376 2.261-7.526 3.615-11.994 3.633h-.005c-.088.001-.193.002-.293.002-6.183 0-11.766-2.591-15.713-6.751l-.01-.011c-3.676-3.872-5.937-9.124-5.937-14.9 0-.511.021-1.017.054-1.519l-.004.065z"/><path fill="#ff5f00" d="M631.125 227.857H393.166v427.624h237.959V227.857z"/><path fill="#eb001b" d="M408.14 441.685v-.251c0-86.419 40.378-163.41 103.303-213.13l.574-.437c-45.783-36.247-104.368-58.145-168.065-58.145-43.249 0-84.139 10.095-120.449 28.058l1.59-.708c-91.367 45.132-153.1 137.66-153.1 244.613 0 53.473 15.431 103.346 42.086 145.399l-.661-1.112c48.875 77.177 133.805 127.672 230.527 127.672 63.697 0 122.283-21.898 168.636-58.582l-.571.435c-63.492-50.158-103.87-127.144-103.87-213.564v-.26.016z"/><path fill="#f79e1b" d="M952.012 441.684v.021c0 53.464-15.429 103.329-42.08 145.375l.661-1.112C861.72 663.146 776.79 713.643 680.068 713.643c-10.222 0-20.311-.565-30.241-1.662l1.221.107c-53.163-5.856-100.694-26.234-139.608-57.025l.571.435c32.031-25.344 57.861-57.061 75.818-93.371l.708-1.591c17.251-34.719 27.344-75.608 27.344-118.854s-10.093-84.136-28.053-120.445l.708 1.59c-18.671-37.894-44.494-69.618-75.963-94.528l-.57-.434c45.781-36.247 104.365-58.144 168.061-58.144 43.249 0 84.138 10.096 120.448 28.058l-1.589-.708c91.362 45.129 153.089 137.657 153.089 244.595v.015-.001zm-25.964 168.515v-8.75h3.53v-1.783h-8.993v1.783h3.53v8.75h1.927zm17.456 0v-10.552h-2.759l-3.172 7.258-3.169-7.258h-2.76v10.552h1.947v-7.962l2.973 6.867h2.019l2.974-6.879v7.979h1.947z"/></svg>