<svg xmlns="http://www.w3.org/2000/svg" viewBox="0 0 1024 1024"><path d="M187.104 355.982c-12.001 14.202-31.203 25.403-50.406 23.803-2.4-19.202 7.001-39.605 18.002-52.206 12.001-14.602 33.004-25.003 50.006-25.803 2 20.002-5.801 39.605-17.602 54.206zm17.402 27.604c-27.803-1.6-51.606 15.802-64.807 15.802-13.402 0-33.604-15.002-55.606-14.602-28.603.4-55.206 16.602-69.808 42.405-30.003 51.606-7.801 128.015 21.202 170.02 14.202 20.802 31.203 43.606 53.606 42.806 21.202-.801 29.603-13.802 55.206-13.802 25.803 0 33.204 13.802 55.606 13.402 23.203-.4 37.804-20.803 52.006-41.605 16.202-23.603 22.803-46.605 23.203-47.805-.4-.4-44.805-17.402-45.205-68.608-.4-42.805 35.004-63.207 36.604-64.408-20.003-29.603-51.206-32.804-62.007-33.604zm160.618-58.007v311.836h48.407V530.802h67.007c61.207 0 104.212-42.005 104.212-102.812s-42.204-102.412-102.614-102.412H365.124zm48.408 40.804h55.805c42.006 0 66.007 22.403 66.007 61.807s-24.002 62.007-66.206 62.007h-55.606V366.383zm259.627 273.431c30.403 0 58.607-15.4 71.41-39.804h.999v37.405h44.805V482.197c0-45.005-36.005-74.009-91.409-74.009-51.408 0-89.411 29.403-90.81 69.808h43.604c3.6-19.202 21.402-31.804 45.804-31.804 29.606 0 46.207 13.801 46.207 39.205v17.202l-60.407 3.6c-56.208 3.401-86.612 26.403-86.612 66.408 0 40.406 31.406 67.207 76.409 67.207zm13.002-37.003c-25.802 0-42.204-12.401-42.204-31.404 0-19.603 15.8-31.004 46.006-32.804l53.807-3.401v17.602c0 29.203-24.802 50.005-57.608 50.005zm164.02 119.413c47.206 0 69.409-18.001 88.809-72.608l85.011-238.428h-49.205l-57.009 184.221h-.999l-57.006-184.221h-50.607l82.01 227.027-4.4 13.799c-7.401 23.403-19.403 32.405-40.805 32.405-3.801 0-11.202-.4-14.202-.801v37.404c2.802.801 14.804 1.201 18.404 1.201z"/></svg>