<svg xmlns="http://www.w3.org/2000/svg" viewBox="0 0 1024 1024"><path fill="#5f6368" d="M484.33 507.254v120.68h-37.809V330.035h100.278c24.187-.475 47.437 8.789 65.052 25.894 17.612 15.916 27.476 38.96 27.004 62.715.472 23.993-9.392 47.037-27.004 63.191-17.615 16.867-39.22 25.419-64.819 25.419h-62.703zm0-140.634v104.051h63.407c14.093.475 27.712-5.226 37.34-15.442 19.964-19.48 20.197-51.55.94-71.743l-.94-.95c-9.628-10.452-23.247-16.154-37.34-15.679l-63.407-.238zm241.655 50.837c27.944 0 50.021 7.602 66.225 22.568 16.206 15.204 24.19 35.871 24.19 62.24v125.43h-36.167v-28.268h-1.645c-15.731 23.282-36.4 34.921-62.467 34.921-22.074 0-40.862-6.653-55.656-19.955-14.562-12.353-22.781-30.645-22.313-49.887 0-21.143 7.987-37.772 23.722-50.362s36.868-18.767 63.171-18.767c22.546 0 40.862 4.276 55.423 12.353v-8.79c0-13.066-5.635-25.419-15.499-33.733-10.1-9.027-23.014-14.016-36.403-14.016-21.134 0-37.809 9.027-50.254 27.081l-33.35-21.143c18.084-26.369 45.091-39.672 81.022-39.672zm-48.849 147.999c0 9.977 4.698 19.242 12.449 24.944 8.452 6.652 18.785 10.215 29.353 9.978 15.971 0 31.237-6.414 42.506-17.817 12.449-11.878 18.788-25.894 18.788-42.048-11.741-9.502-28.18-14.254-49.317-14.254-15.263 0-28.18 3.801-38.513 11.165-10.1 7.602-15.266 16.867-15.266 28.032zM1024 424.109 897.655 717.731H858.67l46.968-102.626-83.132-190.759h41.098l59.885 146.336h.937l58.477-146.336 41.098-.238z"/><path fill="#4285f4" d="M331.48 481.124c0-11.641-.94-23.281-2.821-34.683H169.202v65.804h91.354c-3.757 21.143-15.969 40.147-33.817 52.025v42.76h54.483c31.938-29.695 50.257-73.643 50.257-125.906z"/><path fill="#34a853" d="M169.184 648.367c45.56 0 84.074-15.204 112.02-41.336l-54.483-42.761c-15.265 10.453-34.757 16.391-57.537 16.391-44.15 0-81.49-30.17-94.876-70.555H18.181v44.186c28.651 57.489 87.127 94.075 151.004 94.075z"/><path fill="#fbbc04" d="M74.269 510.106c-7.045-21.143-7.045-44.186 0-65.566v-43.948H18.142C6.216 424.371.001 450.659.001 477.323s6.215 52.952 18.141 76.731l56.127-43.948z"/><path fill="#ea4335" d="M169.184 373.984c24.189-.476 47.438 8.789 64.817 25.656l48.143-48.7c-30.529-29.219-70.922-45.136-112.959-44.661-63.877 0-122.353 36.584-151.004 94.311l56.127 44.186c13.386-40.622 50.726-70.792 94.876-70.792z"/></svg>