<svg xmlns="http://www.w3.org/2000/svg" viewBox="0 0 1024 1024"><path fill="#212121" d="M579.106 539.494v81.038h-38.047v-218.1h83.765c24.463 0 43.886 6.341 58.275 19.023s21.58 29.459 21.58 50.331c0 21.371-7.044 37.997-21.127 49.881-14.087 11.883-33.815 17.826-59.177 17.826h-45.267zm-1.102-31.953h45.568c13.491 0 23.783-3.175 30.876-9.526 7.096-6.35 10.643-15.525 10.643-27.526 0-11.801-3.596-21.225-10.792-28.276s-17.087-10.675-29.679-10.875h-46.617v76.203zm246.099 97.483c1.207 6.994 2.613 12.039 4.217 15.135h37.34v-2.544c-4.117-8.694-6.175-20.336-6.175-34.926v-73.144c-.301-17.288-6.122-30.702-17.463-40.245-11.344-9.543-26.548-14.314-45.621-14.314-12.545 0-23.914 2.199-34.1 6.595-10.19 4.397-18.242 10.468-24.165 18.211-5.923 7.745-8.884 16.064-8.884 24.957h36.586c0-6.396 2.659-11.667 7.98-15.814 5.318-4.147 12.145-6.22 20.476-6.22 9.638 0 16.811 2.523 21.531 7.569 4.717 5.047 7.075 11.767 7.075 20.161v10.642h-22.43c-23.991 0-42.434 4.621-55.333 13.864-12.896 9.244-19.346 22.508-19.346 39.795 0 13.69 5.169 25.179 15.508 34.472s23.687 13.941 40.049 13.941c16.861 0 31.115-6.047 42.757-18.136zm-35.546-10.77c7.248 0 14.065-1.75 20.457-5.247 6.392-3.499 11.198-8.196 14.419-14.094v-30.585h-19.777c-13.591 0-23.808 2.348-30.65 7.046-6.848 4.697-10.27 11.344-10.27 19.941 0 6.997 2.343 12.569 7.022 16.718 4.682 4.148 10.947 6.221 18.8 6.221zm196.689-136.64-32.921 110.468-34.268-110.468h-39.204l56.862 162.089-5.237 13.997c-2.693 7.925-6.361 13.569-11 16.932-4.636 3.36-11.546 5.039-20.724 5.039l-6.882-.45v28.295c6.386 1.806 12.219 2.709 17.506 2.709 23.644 0 40.402-13.696 50.278-41.088L1024 457.614h-38.754z"/><path fill="#0b0b0b" d="M435.553 518.364c0 112.541-94.083 203.773-210.141 203.773S15.271 630.905 15.271 518.364s94.083-203.773 210.141-203.773 210.141 91.232 210.141 203.773z"/><path fill="#fff" d="M333.186 527.138h-20.035v-94.272H293.82l-2.733 1.42-64.652 92.606-.594 1.881v21.052h64.318v35.215h22.992v-35.215h20.035v-22.687zM212.41 562.257v22.783H110.054l.195-3.484c1.702-30.464 12.261-43.345 45.159-63.806-.037.023 5.751-3.58 7.411-4.633 18.153-11.535 25.976-20.526 25.976-34.262 0-14.394-10.098-24.204-24.999-24.204-17.233 0-26.097 13.011-26.582 33.324l-.076 3.222h-22.661l-.154-3.141-.196-4.062c0-30.545 20.302-51.127 50.485-51.127 29.511 0 49.047 18.054 49.047 45.607 0 25.135-11.971 37.503-45.467 57.652l-.667.396-2.169 1.28c-1.196.705-2.513 1.48-3.04 1.793-13.645 8.105-20.711 14.17-24.024 22.662h74.12zm77.75-35.167h-37.297l37.297-54.944v54.944z"/><path fill="#6dc22c" d="M0 512c0-122.639 99.962-222.173 223.131-222.173 123.168 0 223.133 99.534 223.133 222.173 0 122.641-99.964 222.174-223.133 222.174S0 634.641 0 512zm28.335 0c0 106.922 87.415 193.963 194.796 193.963S417.928 618.922 417.928 512c0-106.92-87.417-193.961-194.797-193.961-107.382 0-194.796 87.04-194.796 193.961z"/></svg>