<svg xmlns="http://www.w3.org/2000/svg" viewBox="0 0 1024 1024"><path fill="#3362ab" d="M955.136 359.302h-64.371c-19.462 0-34.431 5.988-43.414 25.45L724.594 664.7h86.827s14.969-37.426 17.963-46.408h106.292c2.991 10.479 10.479 44.911 10.479 44.911h77.844l-68.864-303.901zM853.339 555.416c7.485-17.965 32.935-85.332 32.935-85.332 0 1.497 7.485-17.965 10.479-28.444l5.989 26.947s16.467 73.356 19.459 88.326H853.34v-1.497zM730.626 564.397c0 62.876-56.887 104.794-145.213 104.794-37.425 0-73.354-7.486-92.816-16.468l11.977-68.864 10.479 4.491c26.946 11.976 44.909 16.467 77.844 16.467 23.955 0 49.402-8.983 49.402-29.941 0-13.473-10.479-22.456-43.414-37.426-31.436-14.97-73.354-38.923-73.354-82.337 0-59.882 58.386-100.302 140.723-100.302 31.436 0 58.383 5.988 74.85 13.473l-11.974 65.87-5.989-5.988c-14.972-5.989-34.434-11.976-62.876-11.976-31.439 1.497-46.408 14.971-46.408 26.947 0 13.473 17.963 23.953 46.408 37.426 47.904 22.456 70.36 47.905 70.36 83.835z"/><path fill="#f9b50b" d="m0 362.295 1.497-5.988h128.745c17.965 0 31.438 5.988 35.929 25.45l28.444 134.735C166.171 444.634 100.302 386.249 0 362.296z"/><path fill="#3362ab" d="M375.841 359.299 245.6 663.2h-88.325L82.423 408.702c53.893 34.432 98.805 88.326 115.272 125.752l8.982 31.438 80.84-208.09h88.324v1.497zM410.207 357.802h82.337L440.147 663.2H357.81l52.397-305.398z"/></svg>