<svg xmlns="http://www.w3.org/2000/svg" viewBox="0 0 1024 1024"><path d="M482.082 7.276c-8.572 4.459-15.843 10.197-21.865 17.058l-.072.084C444.789 44.519 444.84 44.06 444.84 251.601v191.674l-197.133.815c-188.409.765-197.592 1.021-208.052 6.225-24.54 12.193-38.417 33.774-38.519 60.1-.153 28.774 12.448 48.875 38.213 61.068l14.08 6.632 391.256.051.765 198.511c.765 198.205.815 198.562 6.938 210.041 8.571 15.968 23.468 28.162 40.61 33.264 18.061 5.357 20.305 5.357 38.366 0 17.142-5.102 32.039-17.295 40.61-33.264 6.123-11.479 6.174-11.836 6.938-210.041l.765-198.511 391.256-.051 14.08-6.632c25.713-12.193 37.854-31.428 37.854-59.998 0-32.907-21.581-59.18-53.569-65.252-8.622-1.633-91.016-2.756-202.184-2.756H579.522V251.752c0-214.02.255-210.958-18.672-230.448-21.377-22.04-51.835-27.447-78.772-14.029z"/></svg>