<svg xmlns="http://www.w3.org/2000/svg" viewBox="0 0 1024 1024"><path d="M262.409 24.917c-45.124 4.253-81.236 9.584-94.057 13.963-24.816 8.441-43.284 25.704-55.279 51.852-3.808 8.378-5.586 18.849-6.664 38.968l-1.397 27.544-21.705 5.586c-13.068 3.357-24.201 7.241-34.904 11.93l1.458-.57c-25.069 12.122-42.459 36.43-47.6 66.575C.293 252.125-.341 356.591.167 587.035l.762 330.024 5.902 14.597c11.869 29.321 44.363 55.215 75.905 60.42 10.408 1.714 25.323 1.333 51.471-1.333 119.063-12.122 185.702-10.789 334.846 6.537 41.952 4.886 45.76 4.95 76.159 1.142 40.717-5.624 93.619-10.734 147.016-14.023l6.509-.321c53.628-3.237 110.05-1.206 191.286 6.854 43.601 4.315 58.959 2.856 81.11-7.997 17.517-8.504 39.348-32.368 46.964-51.217l5.902-14.661V234.163l-5.712-14.153c-12.883-31.796-32.432-46.267-78.698-58.135l-10.789-2.792v-20.88c-.064-36.62-9.71-60.292-33.065-81.3-16.501-14.851-32.939-20.88-70.193-25.64-99.578-12.821-179.545-10.917-291.944 6.981-18.278 2.92-24.435 2.792-50.772-1.206-84.03-12.693-166.091-17.2-220.417-12.122zm147.242 64.481c18.152 2.158 41.888 5.141 52.676 6.728l19.675 2.792v715.326l-5.712-.064c-3.173 0-24.561-2.349-47.6-5.205-62.831-7.742-133.723-9.139-187.352-3.744-24.181 2.411-46.648 3.744-49.948 2.92-8.694-2.221-21.832-14.025-25.577-22.974-2.539-6.219-2.73-72.225-.698-336.497 2.349-298.799 2.92-329.453 6.79-336.117 7.616-13.328 14.851-16.501 47.345-20.753 71.59-9.33 125.092-10.027 190.398-2.411zm384.604 0c49.44 5.522 57.183 7.68 65.433 18.533l6.918 9.075-.952 248.977c-.412 124.828-1.333 242.683-2.776 360.413l.238-24.615-1.587 86.822-8.758 9.013c-12.821 13.201-20.627 14.534-56.803 9.584-47.409-6.474-147.559-5.712-202.838 1.523-23.293 3.046-44.172 5.522-46.331 5.522-3.491 0-3.872-37.572-3.872-357.948 0-196.872.762-357.948 1.65-357.948s19.485-2.285 41.252-5.077c83.902-10.853 137.087-11.805 208.422-3.872zM103.236 502.816c-2.03 250.183-1.84 280.392 1.778 294.355 7.489 29.195 25.958 50.519 56.041 64.609 13.137 6.157 18.088 7.045 39.158 7.045 13.264 0 41.824-1.587 63.467-3.554 46.076-4.125 91.962-2.73 157.333 4.824 24.435 2.792 48.107 5.776 52.676 6.6l8.314 1.587v58.452l-12.059-1.587c-113.033-14.787-218.513-17.39-317.965-7.933-64.355 6.157-73.494 4.824-83.902-12.185-4.824-7.933-4.95-15.296-4.95-339.925v-331.8l6.157-7.109c5.902-6.918 31.48-17.009 34.716-13.709.826.826.507 126.996-.762 280.33zm846.448-273.347c3.808 1.904 8.061 5.648 9.52 8.378 1.714 3.237 2.602 114.493 2.602 338.464v333.577l-8.251 9.456c-4.351 5.343-10.194 9.316-16.893 11.299l-.242.061c-5.014 1.078-29.385-.064-55.851-2.539-109.098-10.408-205.504-8.251-325.581 7.045l-12.059 1.523v-58.516l15.867-2.666c73.367-12.502 167.296-15.296 232.35-6.981 43.728 5.586 60.673 3.491 83.711-10.345 20.499-12.312 30.147-22.403 39.476-41.316 7.362-15.041 8.187-19.23 9.774-49.504.952-18.214 1.778-100.085 1.904-181.83.126-81.807 1.016-196.872 1.904-255.769l1.714-106.94 6.537 1.523c3.618.888 9.71 3.173 13.518 5.077z"/></svg>