<svg xmlns="http://www.w3.org/2000/svg" viewBox="0 0 1024 1024"><path d="m48.157 740.187.003-.006 103.816-155.676c16.282-24.419 24.973-53.112 24.973-82.463V287.851C176.949 122.367 336.495 0 511.99 0c175.445 0 335.038 122.368 335.038 287.851v214.191c0 29.368 8.647 58.043 24.929 82.463l103.812 155.623c7.68 11.498 12.098 24.862 12.771 38.673.679 13.811-2.412 27.548-8.934 39.739-6.528 12.185-16.242 22.378-28.107 29.473-11.865 7.101-25.435 10.839-39.258 10.825zm0 0L912.241 854.12zm0 0c-7.657 11.498-12.046 24.868-12.702 38.673s2.447 27.527 8.978 39.705c6.531 12.177 16.245 22.358 28.107 29.453 11.862 7.089 25.426 10.833 39.246 10.819zm0 0 63.627 118.649zm864.083 118.65v-4.717zm0 0v-4.717zm0 0H681.803zm0-4.717H681.87c0 1.572-.027 3.145-.067 4.717zm-230.437 4.717c-.579 20.699-4.929 41.13-12.864 60.29-8.541 20.612-21.052 39.339-36.827 55.114s-34.502 28.286-55.114 36.821c-20.61 8.541-42.701 12.938-65.01 12.938s-44.4-4.397-65.01-12.938c-20.61-8.535-39.338-21.044-55.113-36.821s-28.288-34.502-36.825-55.114c-7.935-19.16-12.291-39.592-12.866-60.29zm0 0h-4.656v-4.717zm-4.657-4.717c0 21.685-4.27 43.163-12.571 63.202s-20.465 38.246-35.801 53.582c-15.336 15.336-33.543 27.501-53.582 35.801s-41.516 12.571-63.204 12.571c-21.689 0-43.166-4.27-63.205-12.571s-38.246-20.465-53.582-35.801c-15.336-15.336-27.502-33.543-35.803-53.582s-12.572-41.517-12.572-63.202v4.717h-4.653zm0 0L52.085 742.799c-7.184 10.792-11.301 23.337-11.918 36.288s2.295 25.822 8.424 37.247c6.127 11.433 15.241 20.979 26.369 27.634 11.128 6.648 23.853 10.16 36.819 10.152h230.328c0 1.572.022 3.145.066 4.717zm0 0-565.364 4.717zm-334.972 4.717h-230.39zM218.766 629h.002c25.051-37.6 38.413-81.776 38.401-126.959V287.85c0-108.219 109.544-207.63 254.82-207.63 145.272 0 254.821 99.411 254.821 207.63v214.191c0 45.187 13.376 89.363 38.446 126.959l99.729 149.614H118.963L218.766 629zm203.687 229.837h179.069c-1.162 22.058-10.438 42.984-26.136 58.679-16.815 16.815-39.619 26.261-63.397 26.261s-46.584-9.446-63.399-26.261c-15.698-15.695-24.975-36.621-26.136-58.679z"/></svg>