<svg xmlns="http://www.w3.org/2000/svg" viewBox="0 0 1024 1024"><path d="m50.31 741.507.003-.006L153.647 586.55c16.207-24.305 24.855-52.866 24.855-82.081V291.273c0-164.716 158.806-286.514 333.485-286.514 174.633 0 333.485 121.8 333.485 286.514v213.196c0 29.232 8.607 57.774 24.807 82.081l103.33 154.905c7.653 11.439 12.042 24.74 12.718 38.487.67 13.746-2.401 27.42-8.899 39.555-6.492 12.135-16.16 22.274-27.97 29.342-11.81 7.062-25.317 10.789-39.084 10.769zm0 0 860.075 113.404zm0 0C42.69 752.959 38.32 766.26 37.667 780s2.435 27.4 8.936 39.528c6.501 12.121 16.169 22.254 27.976 29.31 11.805 7.062 25.306 10.783 39.062 10.769zm0 0 63.331 118.098zm860.067 118.098.006-4.695zm0 0h.006v-4.695zm0 0H681.01zm.008-4.694H681.077c0 1.565-.02 3.13-.067 4.695zm-229.375 4.694c-.57 20.603-4.906 40.947-12.805 60.01-8.495 20.516-20.955 39.157-36.656 54.858-15.695 15.702-34.342 28.155-54.855 36.656-20.515 8.495-42.503 12.871-64.708 12.871s-44.194-4.376-64.708-12.871c-20.515-8.501-39.155-20.955-54.857-36.656s-28.156-34.342-36.655-54.858c-7.898-19.065-12.234-39.408-12.806-60.01zm0 0h-4.628v-4.695zm-4.628-4.694c0 21.59-4.251 42.963-12.512 62.909s-20.37 38.069-35.635 53.334c-15.271 15.265-33.394 27.373-53.337 35.635-19.946 8.262-41.323 12.519-62.912 12.519s-42.966-4.257-62.912-12.519c-19.944-8.262-38.067-20.37-53.334-35.635s-27.375-33.388-35.635-53.334c-8.262-19.946-12.514-41.319-12.514-62.909v4.695h-4.631zm0 0 189.993-265.756c-16.724-25.082-25.595-54.532-25.595-84.685V291.274c0-161.341-155.895-281.818-328.792-281.818-172.942 0-328.787 120.477-328.787 281.818V504.47c0 30.141-8.924 59.608-25.645 84.685L54.222 744.106c-7.149 10.742-11.249 23.228-11.861 36.12s2.285 25.709 8.383 37.08c6.098 11.372 15.17 20.874 26.246 27.499s23.743 10.113 36.648 10.105zm0 0-562.742 4.695zm-333.42 4.694c-.044-1.565-.065-3.13-.065-4.695H113.639zm0 0h-229.32zm-229.325-4.694v4.695h.003zm0 0 .003 4.695zm106.49-224.069.002-.006c24.936-37.424 38.235-81.394 38.223-126.366V291.273c0-107.716 109.036-206.666 253.637-206.666s253.635 98.949 253.635 206.666v213.196c0 44.979 13.322 88.948 38.274 126.374l99.26 148.92H120.789l99.339-148.92zm202.741 228.763h178.239c-1.153 21.962-10.391 42.784-26.015 58.406-16.737 16.737-39.435 26.139-63.105 26.139s-46.368-9.403-63.105-26.139c-15.625-15.622-24.859-36.445-26.015-58.406z"/><path d="M981.671 258.334c0 142.674-115.66 258.333-258.333 258.333s-258.333-115.66-258.333-258.333C465.005 115.66 580.665.001 723.338.001s258.333 115.66 258.333 258.333z"/><path fill="#fff" stroke="#fff" stroke-linecap="round" stroke-linejoin="round" stroke-width="14.9333" d="M611.618 146.614c7.612-7.606 19.94-7.606 27.546 0l84.174 84.174 84.174-84.174c7.606-7.606 19.94-7.606 27.546 0s7.606 19.94 0 27.546l-84.174 84.174 84.174 84.174c7.606 7.606 7.606 19.94 0 27.546s-19.94 7.606-27.546 0l-84.174-84.174-84.174 84.174c-7.606 7.606-19.933 7.606-27.546 0-7.606-7.606-7.606-19.94 0-27.546l84.174-84.174-84.174-84.174c-7.606-7.606-7.606-19.94 0-27.546z"/></svg>