<svg xmlns="http://www.w3.org/2000/svg" viewBox="0 0 1024 1024"><path d="M275.25 22.957c8.469 11.815 11.9 26.51 9.541 40.854s-10.315 27.166-22.121 35.648c-47.295 33.978-85.83 78.72-112.421 130.529s-40.477 109.2-40.511 167.438c0 14.546-5.779 28.5-16.066 38.787s-24.239 16.065-38.788 16.065c-14.548 0-28.501-5.778-38.787-16.065S.031 411.973.031 397.426c.027-75.66 18.054-150.226 52.595-217.539S137.228 54.445 198.674 10.304c5.853-4.204 12.478-7.214 19.495-8.858s14.289-1.888 21.4-.719c7.111 1.169 13.923 3.726 20.045 7.528s11.435 8.846 15.635 14.702zm4.023 164.927c46.028-46.029 104.672-77.375 168.515-90.075 63.846-12.7 130.022-6.182 190.162 18.729s111.54 67.095 147.706 121.22c36.162 54.125 55.467 117.755 55.467 182.85v255.984c0 19.401 7.703 38.002 21.421 51.719 13.714 13.714 32.319 21.421 51.715 21.421 9.7 0 19.001 3.853 25.858 10.711 6.86 6.857 10.711 16.161 10.711 25.858 0 9.7-3.85 19.001-10.711 25.858-6.857 6.86-16.157 10.711-25.858 10.711H109.738c-9.699 0-19.001-3.85-25.859-10.711-6.858-6.857-10.711-16.157-10.711-25.858 0-9.696 3.853-19.001 10.711-25.858s16.159-10.711 25.859-10.711c19.398 0 38.001-7.707 51.716-21.421 13.717-13.718 21.422-32.319 21.422-51.719V420.608c0-43.221 8.512-86.018 25.052-125.949s40.783-76.214 71.344-106.776zm104.734 781.264c0-14.55 5.778-28.503 16.065-38.79s24.24-16.065 38.787-16.065h146.28c14.546 0 28.5 5.778 38.787 16.065s16.065 24.24 16.065 38.79c0 14.546-5.778 28.5-16.065 38.787S599.686 1024 585.139 1024h-146.28c-14.546 0-28.5-5.778-38.787-16.065s-16.065-24.24-16.065-38.787zM825.323 10.305c-5.861-4.202-12.489-7.209-19.509-8.849s-14.294-1.882-21.41-.71c-7.113 1.172-13.925 3.733-20.052 7.538-6.123 3.804-11.437 8.779-15.639 14.637-4.205 5.859-7.212 12.488-8.85 19.509-1.642 7.021-1.881 14.296-.71 21.41s3.734 13.927 7.537 20.052c3.806 6.124 8.779 11.439 14.639 15.641 47.275 33.964 85.795 78.681 112.388 130.464s40.487 109.144 40.544 167.355c0 14.546 5.778 28.5 16.065 38.787s24.24 16.069 38.79 16.069c14.546 0 28.5-5.782 38.787-16.069s16.065-24.24 16.065-38.787c-.037-75.646-18.073-150.197-52.613-217.496-34.537-67.3-84.594-125.417-146.031-169.551z"/></svg>