<svg xmlns="http://www.w3.org/2000/svg" viewBox="0 0 1024 1024"><path d="M428.248 24.499c-54.247 3.603-114.699 20.417-165.04 46.039C148.71 128.587 66.239 232.278 35.412 356.983c-8.308 33.828-11.509 62.453-11.41 103.388 0 52.645 6.406 92.878 22.22 139.619 22.319 66.056 57.851 122.305 108.894 172.148 69.759 68.259 156.334 109.494 255.618 121.804 18.316 2.202 73.962 2.502 92.578.501 81.67-9.007 157.336-38.634 219.69-85.774 5.403-4.104 10.21-7.507 10.609-7.507s40.434 39.534 88.876 87.874c82.771 82.471 102.188 100.886 112.395 106.992 9.007 5.304 26.123 5.304 37.833-.099 7.207-3.303 17.415-13.012 21.419-20.519 6.406-12.109 7.708-27.224 3.202-39.234-1.8-4.803-5.205-8.908-24.32-29.024-12.31-12.91-55.949-57.248-97.184-98.585l-74.763-75.165 6.805-9.409c18.617-25.622 31.728-47.041 43.738-71.461 17.215-34.929 30.026-72.864 37.533-110.595 7.408-37.533 8.908-104.489 3.102-142.622-10.21-66.458-32.829-125.908-69.06-181.155-14.113-21.518-27.224-37.731-47.14-57.95-31.026-31.527-49.642-47.341-76.566-65.156-59.45-39.333-131.612-64.355-200.671-69.459-19.718-1.5-56.648-2.103-70.56-1.101zm66.357 95.58c18.917 2.001 34.53 4.704 50.743 9.007 100.187 26.222 184.557 97.685 226.794 192.063 14.812 33.129 23.621 66.458 28.025 105.69 1.701 15.814 1.5 53.845-.501 70.56-8.107 66.857-32.529 124.807-75.264 178.352-10.609 13.21-37.332 39.933-50.944 50.743-48.04 38.334-104.189 62.954-164.14 71.763-72.162 10.609-148.428-2.802-211.58-37.131-75.666-41.136-136.517-114.099-162.64-194.968-10.909-33.729-15.412-61.352-16.315-98.984-1.002-44.038 3.702-76.767 16.615-114.597C176.033 233.475 275.617 146.7 398.222 123.581c26.624-5.004 67.457-6.505 96.383-3.504z"/></svg>