<svg xmlns="http://www.w3.org/2000/svg" viewBox="0 0 1024 1024"><path fill-rule="evenodd" d="M236.373 103.025c-10.587 4.969-17.353 11.597-22.01 21.562l-3.59 7.68-.853 327.105-.853 327.105-59.613-52.723c-65.692-58.1-67.011-58.979-86.343-57.581-18.493 1.338-35.182 16.844-38.158 35.454-1.338 8.367 1.347 21.061 6.071 28.705 1.945 3.147 47.716 44.803 101.713 92.569 103.819 91.837 104.179 92.112 120.703 92.112 16.525 0 16.81-.218 121.482-92.897 109.145-96.638 106.824-94.166 106.893-113.864.062-17.651-10.457-33.055-27.411-40.139-7.791-3.255-26.09-2.388-33.805 1.601-2.853 1.475-31.647 26.082-63.986 54.682l-58.8 51.999-.853-327.064c-.81-310.286-1.011-327.415-3.926-333.891-9.916-22.026-35.73-32.238-56.661-22.415m520.534-2.043c-2.816 1.047-7.424 3.515-10.24 5.484-2.816 1.968-48.202 41.722-100.857 88.342-100.742 89.195-100.726 89.179-103.804 106.084-1.531 8.409 2.471 22.283 9.046 31.36 10.078 13.911 32.683 19.955 49.488 13.232 4.115-1.647 29.571-22.897 66.168-55.235l59.479-52.558.853 327.021c.82 314.149.978 327.307 4.031 334.288 3.978 9.098 17.363 21.311 26.287 23.984 21.213 6.356 42.93-3.432 52.297-23.571l3.572-7.68.853-327.102.853-327.102 59.545 52.706c41.821 37.016 61.739 53.542 66.913 55.518 11.296 4.314 27.169 2.755 37.628-3.697 9.476-5.845 18.31-18.938 20.028-29.683 1.333-8.337-1.343-21.055-6.024-28.629-4.543-7.351-195.91-176.669-204.189-180.663-7.536-3.635-24.757-4.768-31.927-2.099"/></svg>