<svg xmlns="http://www.w3.org/2000/svg" viewBox="0 0 983 1024"><path d="M791.388 250.348c-7.26-3.764-13.194-7.272-18.931-11.055l.786.487c-17.579-11.72-32.848-24.765-46.421-39.403l-.15-.164c-34.775-39.772-47.759-80.118-52.511-108.38h.164c-3.973-23.429-2.335-38.584-2.048-38.584h-158.31v612.065c0 8.192 0 16.343-.328 24.371 0 .983-.123 1.884-.164 2.99 0 .41 0 .901-.123 1.352v.328c-3.554 45.788-29.573 84.803-66.934 106.355l-.65.346c-18.777 10.871-41.309 17.285-65.34 17.285h-.207.011c-73.728 0-133.53-60.17-133.53-134.431s59.802-134.349 133.53-134.349a131.004 131.004 0 0 1 41.124 6.472l.205-161.178c-11.313-1.543-24.389-2.423-37.669-2.423-72.119 0-138.174 25.967-189.324 69.06l.443-.364c-26.941 23.485-49.533 51.103-66.983 82.008l-.805 1.551c-6.676 11.551-31.908 57.836-34.939 132.956-1.925 42.68 10.895 86.835 16.998 105.103v.41c3.809 10.732 18.719 47.432 42.967 78.356 19.693 24.84 42.282 46.192 67.55 63.996l1.017.679v-.41l.369.41c76.595 52.06 161.587 48.66 161.587 48.66 14.705-.614 63.98 0 119.931-26.542 62.054-29.368 97.362-73.155 97.362-73.155 21.754-25.105 39.668-54.295 52.362-86.133l.723-2.054c14.336-37.683 19.087-82.821 19.087-100.884v-324.69c1.925 1.147 27.525 18.022 27.525 18.022s36.864 23.634 94.331 39.035c41.206 10.936 96.788 13.23 96.788 13.23V274.553c-19.456 2.13-58.982-4.014-99.492-24.207z"/></svg>