<svg xmlns="http://www.w3.org/2000/svg" viewBox="0 0 989 1024"><path fill="#4c4c4d" d="M726.185 697.545H490.107c-6.063 0-10.985-4.908-10.985-10.985 0-6.073 4.922-10.985 10.985-10.985H715.2v-385.26H222.591v38.636c0 6.064-4.921 10.985-10.985 10.985s-10.985-4.922-10.985-10.985V279.33c0-6.064 4.922-10.985 10.985-10.985h514.579c6.077 0 10.985 4.922 10.985 10.985v407.23c0 6.063-4.908 10.985-10.985 10.985zM304.104 697.581h-92.498c-6.064 0-10.985-4.912-10.985-10.985v-55.335c0-6.073 4.922-10.985 10.985-10.985s10.985 4.912 10.985 10.985v44.35h81.512c6.064 0 10.985 4.908 10.985 10.985 0 6.073-4.922 10.985-10.985 10.985z"/><path fill="#4c4c4d" d="M977.74 697.566c-6.045 0-10.943-4.866-10.989-10.907l-1.042-155.302-112.622-118.216H737.213v262.455h62.45c6.077 0 10.989 4.912 10.989 10.985 0 6.077-4.912 10.985-10.989 10.985h-73.435c-6.077 0-10.985-4.908-10.985-10.985V402.156c0-6.063 4.908-10.985 10.985-10.985h131.57c3.001 0 5.879 1.232 7.955 3.407l118.862 124.773c1.935 2.03 3.012 4.71 3.033 7.503l1.077 159.649c.042 6.077-4.845 11.02-10.911 11.063h-.074z"/><path fill="#4c4c4d" d="M888.599 537.904h-92.993c-6.073 0-10.985-4.908-10.985-10.985V402.157c0-6.063 4.912-10.985 10.985-10.985 6.077 0 10.985 4.922 10.985 10.985v113.788h82.008c6.073 0 10.985 4.922 10.985 10.985 0 6.066-4.922 10.974-10.985 10.974zM362.224 755.666c-38.109 0-69.121-30.999-69.121-69.109 0-38.107 31.001-69.109 69.121-69.109 38.107 0 69.109 31.002 69.109 69.109 0 38.11-31.013 69.109-69.109 69.109zm0-116.245c-25.992 0-47.15 21.144-47.15 47.136s21.147 47.139 47.15 47.139 47.139-21.147 47.139-47.139-21.147-47.136-47.139-47.136zM857.808 755.666c-38.118 0-69.12-30.999-69.12-69.109 0-38.107 31.002-69.109 69.12-69.109 38.11 0 69.109 31.002 69.109 69.109 0 38.11-30.999 69.109-69.109 69.109zm0-116.245c-25.988 0-47.146 21.144-47.146 47.136s21.158 47.139 47.146 47.139c25.992 0 47.139-21.147 47.139-47.139s-21.147-47.136-47.139-47.136zM468.904 493.935H10.986c-6.064 0-10.985-4.919-10.985-10.985 0-6.063 4.921-10.985 10.985-10.985h457.918c6.063 0 10.985 4.922 10.985 10.985 0 6.066-4.922 10.985-10.985 10.985zM468.918 400.903H127.261c-6.064 0-10.985-4.922-10.985-10.985 0-6.066 4.922-10.989 10.985-10.989h341.671c6.063 0 10.985 4.922 10.985 10.989 0 6.063-4.933 10.985-10.999 10.985zM468.918 586.936H127.261c-6.064 0-10.985-4.908-10.985-10.985 0-6.073 4.922-10.985 10.985-10.985h341.671c6.063 0 10.985 4.912 10.985 10.985 0 6.077-4.933 10.985-10.999 10.985z"/><path fill="#f5793b" d="M682.214 323.276H255.518v319.358h426.696V323.276z"/></svg>