<svg xmlns="http://www.w3.org/2000/svg" viewBox="0 0 1024 1024"><path d="M512.001 107.788c-74.415 0-134.738 60.324-134.738 134.738s60.323 134.737 134.738 134.737c74.415 0 134.736-60.324 134.736-134.737s-60.321-134.738-134.736-134.738zM293.97 242.526c0-120.414 97.615-218.03 218.031-218.03s218.028 97.615 218.028 218.03c0 120.414-97.613 218.03-218.028 218.03S293.97 362.941 293.97 242.526zM132.862 634.83c87.556-67.942 215.12-106.848 379.139-106.848S803.58 566.888 891.137 634.83C979.619 703.488 1024 799.465 1024 904.574c0 48.19-36.094 94.931-89.603 94.931H89.603C36.097 999.505 0 952.763 0 904.574c0-105.11 44.385-201.087 132.864-269.744zm51.063 65.8C116.179 753.2 83.291 824.692 83.291 904.573c0 4.587 1.665 7.938 3.355 9.815 1.627 1.81 2.727 1.824 2.956 1.824h844.794c.232 0 1.332-.013 2.959-1.824 1.689-1.877 3.353-5.23 3.353-9.815 0-79.881-32.884-151.372-100.631-203.943-68.671-53.286-176.283-89.357-328.076-89.357s-259.406 36.072-328.076 89.357z"/></svg>