<svg xmlns="http://www.w3.org/2000/svg" viewBox="0 0 3140 1024"><path fill="#a2b2c7" d="M802.625 967.673H539.28L341.804 214.294c-9.373-34.656-29.274-65.293-58.549-79.733-73.058-36.288-153.564-65.167-241.388-79.733V25.823h424.227c58.549 0 102.461 43.571 109.78 94.173l102.461 543.44L941.548 25.824h256.027l-394.95 941.849zm541.327 0h-248.709l204.793-941.849h248.709l-204.793 941.849zm526.555-680.929c7.318-50.728 51.227-79.733 102.461-79.733 80.507-7.283 168.202 7.283 241.384 43.446l43.916-202.786C2185.079 18.666 2104.572 4.1 2031.513 4.1c-241.384 0-417.034 130.46-417.034 311.522 0 137.743 124.416 210.068 212.241 253.639 95.014 43.445 131.611 72.45 124.293 115.896 0 65.167-73.189 94.174-146.248 94.174-87.825 0-175.65-21.722-256.027-58.013l-43.909 202.909c87.825 36.168 182.839 50.729 270.664 50.729 270.664 7.161 438.859-123.18 438.859-318.805 0-246.356-343.846-260.796-343.846-369.408zm1214.252 680.929L2887.285 25.824h-212.111c-43.916 0-87.825 29.005-102.461 72.45l-365.677 869.399h256.02l51.104-137.612h314.573l29.28 137.612h226.748zm-372.995-688.21 73.059 354.968H2580.03l131.734-354.968z"/></svg>