<svg xmlns="http://www.w3.org/2000/svg" viewBox="0 0 1024 1024"><path d="M512.287 663.274c84.554 0 152.553-68.56 152.553-153.05l.497-357.175C665.337 68.435 596.841 0 512.287 0c-84.489 0-153.048 68.435-153.048 153.049v357.175c0 84.489 68.559 153.05 153.048 153.05zm-51.035 200.177V1024h102.032V865.187c-16.612 2.356-33.412 2.227-50.709 2.227-17.419 0-34.527-1.549-51.323-3.963zM331.092 692.23c-45.561-45.997-73.828-102.405-73.828-178.399H155.418c0 102.032 39.919 185.901 104.45 250.493l.744-.683c-.249-.246-.496-.432-.744-.678l71.224-70.729z"/><path d="M766.736 513.79c0 127.57-113.375 253.286-254.275 253.286-70.479 0-134.266-29.507-180.447-75.751l-.868.866-71.224 70.793c.247.187.496.432.744.62 53.123 52.936 122.86 88.581 200.595 99.862 16.858 2.415 33.904 3.968 51.323 3.968 17.36 0 34.096.122 50.709-2.233C736.299 840.469 868.58 692.376 868.58 513.788H766.736z"/></svg>