<svg viewBox="0 0 20 20" xmlns="http://www.w3.org/2000/svg">
<path d="M11.1181 4.04358C11.1181 3.04137 9.90586 2.53952 9.19771 3.24842L5.822 6.62413H4.37269C3.51676 6.62413 2.63383 7.12223 2.37727 8.05318C2.20322 8.68739 2.11541 9.34217 2.11622 9.99984C2.11622 10.6735 2.20699 11.3261 2.37877 11.9465C2.63458 12.8767 3.51751 13.3755 4.37344 13.3755H5.82125L9.19696 16.7513C9.90586 17.4602 11.1181 16.9583 11.1181 15.9561V4.04358ZM14.3288 7.9144C14.2773 7.85912 14.2152 7.81479 14.1462 7.78404C14.0771 7.75328 14.0026 7.73675 13.9271 7.73542C13.8516 7.73408 13.7765 7.74798 13.7065 7.77628C13.6364 7.80457 13.5728 7.84669 13.5193 7.90012C13.4659 7.95354 13.4238 8.01718 13.3955 8.08724C13.3672 8.15729 13.3533 8.23233 13.3546 8.30787C13.356 8.38342 13.3725 8.45792 13.4033 8.52693C13.434 8.59594 13.4783 8.65806 13.5336 8.70957L14.8239 9.99984L13.5336 11.2901C13.4783 11.3416 13.434 11.4037 13.4033 11.4727C13.3725 11.5418 13.356 11.6163 13.3546 11.6918C13.3533 11.7673 13.3672 11.8424 13.3955 11.9124C13.4238 11.9825 13.4659 12.0461 13.5193 12.0996C13.5728 12.153 13.6364 12.1951 13.7065 12.2234C13.7765 12.2517 13.8516 12.2656 13.9271 12.2643C14.0026 12.2629 14.0771 12.2464 14.1462 12.2156C14.2152 12.1849 14.2773 12.1406 14.3288 12.0853L15.6191 10.795L16.9093 12.0853C16.9608 12.1406 17.0229 12.1849 17.092 12.2156C17.161 12.2464 17.2355 12.2629 17.311 12.2643C17.3866 12.2656 17.4616 12.2517 17.5317 12.2234C17.6017 12.1951 17.6654 12.153 17.7188 12.0996C17.7722 12.0461 17.8143 11.9825 17.8426 11.9124C17.8709 11.8424 17.8848 11.7673 17.8835 11.6918C17.8821 11.6163 17.8656 11.5418 17.8349 11.4727C17.8041 11.4037 17.7598 11.3416 17.7045 11.2901L16.4142 9.99984L17.7045 8.70957C17.7598 8.65806 17.8041 8.59594 17.8349 8.52693C17.8656 8.45792 17.8821 8.38342 17.8835 8.30787C17.8848 8.23233 17.8709 8.15729 17.8426 8.08724C17.8143 8.01718 17.7722 7.95354 17.7188 7.90012C17.6654 7.84669 17.6017 7.80457 17.5317 7.77628C17.4616 7.74798 17.3866 7.73408 17.311 7.73542C17.2355 7.73675 17.161 7.75328 17.092 7.78404C17.0229 7.81479 16.9608 7.85912 16.9093 7.9144L15.6191 9.20467L14.3288 7.9144Z" fill="currentColor"/>
</svg>
