<svg viewBox="0 0 20 20" xmlns="http://www.w3.org/2000/svg">
<path d="M11.1279 4.04383C11.1279 3.04162 9.91562 2.53976 9.20747 3.24866L5.83176 6.62437H4.38246C3.52653 6.62437 2.64359 7.12248 2.38704 8.05342C2.21298 8.68764 2.12517 9.34242 2.12598 10.0001C2.12598 10.6737 2.21675 11.3264 2.38854 11.9467C2.64434 12.8769 3.52728 13.3758 4.38321 13.3758H5.83101L9.20672 16.7515C9.91562 17.4604 11.1279 16.9585 11.1279 15.9563V4.04383ZM14.9417 4.82849C15.0472 4.72313 15.1902 4.66395 15.3393 4.66395C15.4884 4.66395 15.6314 4.72313 15.7368 4.82849C18.5934 7.68434 18.5934 12.3151 15.7368 15.1717C15.6302 15.2711 15.4891 15.3252 15.3434 15.3226C15.1976 15.32 15.0585 15.261 14.9555 15.1579C14.8524 15.0548 14.7933 14.9157 14.7908 14.77C14.7882 14.6242 14.8423 14.4832 14.9417 14.3765C15.5164 13.8018 15.9724 13.1195 16.2834 12.3686C16.5945 11.6177 16.7546 10.8129 16.7546 10.0001C16.7546 9.18729 16.5945 8.38246 16.2834 7.63155C15.9724 6.88064 15.5164 6.19835 14.9417 5.62366C14.8363 5.51817 14.7771 5.37517 14.7771 5.22608C14.7771 5.07698 14.8363 4.93398 14.9417 4.82849Z" fill="currentColor"/>
<path d="M12.7762 7.00433C12.8254 6.95513 12.8838 6.91609 12.9481 6.88946C13.0123 6.86283 13.0812 6.84912 13.1508 6.84912C13.2203 6.84912 13.2892 6.86283 13.3535 6.88946C13.4178 6.91609 13.4761 6.95513 13.5253 7.00433C13.9188 7.39771 14.2309 7.86474 14.4438 8.37874C14.6567 8.89275 14.7663 9.44366 14.7663 10C14.7663 10.5564 14.6567 11.1073 14.4438 11.6213C14.2309 12.1353 13.9188 12.6023 13.5253 12.9957C13.4254 13.0921 13.2916 13.1454 13.1528 13.1442C13.0139 13.1429 12.8812 13.0871 12.783 12.9889C12.6849 12.8907 12.6293 12.7579 12.6281 12.619C12.627 12.4802 12.6804 12.3464 12.7769 12.2466C13.072 11.9516 13.306 11.6013 13.4657 11.2159C13.6253 10.8304 13.7075 10.4173 13.7075 10C13.7075 9.58279 13.6253 9.16965 13.4657 8.78418C13.306 8.39871 13.072 8.04846 12.7769 7.75343C12.6778 7.65415 12.6221 7.51956 12.6221 7.37924C12.6221 7.23891 12.6778 7.10433 12.7769 7.00504L12.7762 7.00433Z" fill="currentColor"/>
</svg>
