<svg xmlns="http://www.w3.org/2000/svg" viewBox="0 0 1024 1024"><path d="M511.87 0h.26c282.303 0 511.868 229.695 511.868 512.001 0 282.303-229.567 511.999-511.868 511.999-104.13 0-200.706-30.976-281.666-84.611l-196.8 62.911 63.808-190.208C36.096 727.808 0 623.997 0 512 0 229.631 229.568-.001 511.868-.001zm197.702 795.262c39.103-8.448 88.129-37.376 100.477-72.252 12.353-34.946 12.353-64.707 8.769-71.043-2.895-5.027-9.737-8.322-19.954-13.242-2.658-1.28-5.548-2.672-8.653-4.231-15.039-7.484-88.194-43.646-102.018-48.444-13.568-5.12-26.494-3.328-36.734 11.134-1.95 2.728-3.891 5.459-5.823 8.178-12.353 17.375-24.269 34.132-34.178 44.814-9.025 9.602-23.743 10.817-36.096 5.697-1.345-.563-2.891-1.187-4.618-1.885-19.558-7.898-62.938-25.418-115.446-72.164-44.287-39.424-74.367-88.511-83.071-103.233-8.546-14.764-1.174-23.427 5.638-31.426.125-.148.252-.296.377-.444 4.393-5.434 8.655-9.96 12.939-14.508 3.081-3.271 6.173-6.554 9.333-10.195.469-.54.926-1.065 1.371-1.577 6.709-7.714 10.704-12.307 15.206-21.912 5.12-9.92 1.472-20.161-2.176-27.712-2.51-5.289-18.015-42.907-31.325-75.201-5.696-13.82-10.99-26.663-14.691-35.582-9.92-23.744-17.473-24.64-32.511-25.28-.461-.023-.926-.047-1.397-.07-4.754-.24-9.99-.506-15.756-.506-19.584 0-40 5.76-52.352 18.368-.432.441-.881.898-1.349 1.373-15.802 16.071-51.003 51.871-51.003 123.235 0 71.502 50.733 140.699 60.12 153.504.259.353.486.661.68.926.565.744 1.63 2.285 3.178 4.529 19.167 27.755 112.522 162.951 251.73 220.625 117.634 48.765 152.575 44.223 179.33 38.526z"/></svg>